<?xml version="1.0" encoding="UTF-8"?>
<!DOCTYPE svg PUBLIC "-//W3C//DTD SVG 1.1//EN" "http://www.w3.org/Graphics/SVG/1.1/DTD/svg11.dtd">
<!-- Creator: CorelDRAW -->
<svg xmlns="http://www.w3.org/2000/svg" xml:space="preserve" width="64px" height="64px" version="1.1" shape-rendering="geometricPrecision" text-rendering="geometricPrecision" image-rendering="optimizeQuality" fill-rule="evenodd" clip-rule="evenodd"
viewBox="0 0 64 64"
 xmlns:xlink="http://www.w3.org/1999/xlink"
 xmlns:xodm="http://www.corel.com/coreldraw/odm/2003">
 <g id="Layer_x0020_1">
  <metadata id="CorelCorpID_0Corel-Layer"/>
  <path fill="#3F08C9" d="M30.91 63.615c-17.157,-6.063 -28.633,-22.308 -28.633,-40.504 0,-4.881 0.82,-9.727 2.449,-14.329l0.396 -1.12 1.022 -0.604c7.845,-4.642 16.743,-7.058 25.856,-7.058 9.113,0 18.011,2.416 25.856,7.058l1.022 0.604 0.396 1.12c1.629,4.602 2.449,9.448 2.449,14.329 0,18.196 -11.476,34.441 -28.633,40.504l-1.09 0.385 -1.09 -0.385zm0.49 -1.388c-16.547,-5.849 -27.651,-21.521 -27.651,-39.116 0,-4.716 0.792,-9.391 2.365,-13.837l0.218 -0.616 0.562 -0.333c7.62,-4.509 16.253,-6.853 25.106,-6.853 8.853,0 17.486,2.344 25.106,6.853l0.562 0.333 0.218 0.616c1.573,4.446 2.365,9.121 2.365,13.837 0,17.595 -11.104,33.267 -27.651,39.116l-0.6 0.212 -0.6 -0.212zm0.6 -1.697l0 0c15.411,-5.447 26.451,-20.143 26.451,-37.419 0,-4.642 -0.797,-9.097 -2.261,-13.237 -7.088,-4.195 -15.358,-6.602 -24.19,-6.602 -8.832,0 -17.102,2.407 -24.19,6.602 -1.464,4.14 -2.261,8.595 -2.261,13.237 0,17.276 11.04,31.972 26.451,37.419l0 0 0 0 0 0zm7.705 -22.854l-15.411 0 0 5.91 15.411 0 0 -5.91zm0 -11.82l-15.411 0 0 5.911 15.411 0 0 -5.911zm-16.587 -5.909l17.764 0 4.733 4.733 0 8.263 -1.778 1.778 1.778 1.778 0 8.264 -4.733 4.733 -17.764 0 -4.733 -4.733 0 -8.264 1.778 -1.778 -1.778 -1.778 0 -8.263 4.733 -4.733zm8.882 -13.605l2.003 2.962 3.437 0.99 -2.199 2.821 0.12 3.574 -3.361 -1.22 -3.361 1.22 0.12 -3.574 -2.199 -2.821 3.437 -0.99 2.003 -2.962z"/>
 </g>
</svg>
