<?xml version="1.0" encoding="utf-8"?>
<!-- Generator: Adobe Illustrator 27.9.0, SVG Export Plug-In . SVG Version: 6.00 Build 0)  -->
<svg version="1.1" id="Layer_1" xmlns="http://www.w3.org/2000/svg" xmlns:xlink="http://www.w3.org/1999/xlink" x="0px" y="0px"
	 width="256px" height="160px" viewBox="0 0 256 160" enable-background="new 0 0 256 160" xml:space="preserve">
<g>
	<g>
		<path fill-rule="evenodd" clip-rule="evenodd" fill="#DB0026" d="M159.4,71.4c-1-1.4-1.2-3.8-3.2-4c-2-0.5-4-1.2-6-1.6l-12,1.9
			l-1.4,6.4l19.3,2.5l5,3.3l13.1,1.4l6.2-2.2c-6.4-2.1-12.9-3.7-19.1-6.3C160.5,72.6,160,72,159.4,71.4z"/>
		<path fill="#004526" d="M182.8,79c-0.5-0.5-1.2-0.8-1.6-1c-0.5-0.2-0.4-0.7-0.8-0.8c-0.4-0.2-1.1,0.7-1.6,0.5
			c-0.5-0.2-0.5-1.2-0.9-1.3c-0.5-0.2-1.3,0.6-1.7,0.5c-0.5-0.2-0.5-1.2-0.9-1.3s-1.2,0.6-1.7,0.5c-0.4-0.2-0.5-1.2-0.9-1.3
			c-0.5-0.2-1.3,0.6-1.7,0.5c-0.4-0.2-0.5-1.2-0.9-1.3s-1.3,0.6-1.7,0.5c-0.5-0.2-0.5-1.2-0.9-1.3c-0.4-0.2-1.2,0.5-1.9,0.5
			c-4.4-0.4-6.1-3.2-6.4-2.4c-0.3,0.8,0.9,2.8,2.5,3.5c1.2,0.5,14.4,4.2,14.7,4.3c0.3,0.2,1.2,0.5,0.8,1c-0.5,0.6-1.8,0-2.1-0.2
			c-0.3-0.3-0.2-0.4-0.5-0.5c-0.7-0.2-1.1,1.2-1.9,0.9c-0.7-0.2-0.6-1.5-1.3-1.7c-0.8-0.2-1.1,1.1-1.9,0.9c-0.6-0.2-0.7-1.5-1.3-1.7
			c-0.8-0.2-1.1,1.2-1.9,0.9c-0.7-0.2-0.6-1.5-1.3-1.7c-0.7-0.2-1.2,1.1-1.9,0.9s-0.8-1.5-1.3-1.7c-0.6-0.2-1.1,0.5-1.9,0.7
			c0,0-2.3,0.6-5.9-3.2c-3.6-3.8-5.2-4.6-7.3-3c-3.4,2.5-5.5,0.8-6.1,0.1c-0.8-0.8,0-1.6,0-1.6s1.1,1.7,2.5,1.7
			c2.2,0.1,3.9-2.9,7.6-3c4.8-0.2,6,1.5,7.3,1.6c1.2,0.2,1.6-0.1,2.5-0.5l0,0c0.7-0.2,1.2,1.1,1.9,0.8c0.8-0.3,0.2-1.6,1-1.9
			c0.8-0.2,1.2,1.1,1.9,0.8c0.8-0.3,0.3-1.6,1-1.9c0.8-0.2,1.2,1.1,1.9,0.8c0.8-0.3,0.3-1.6,1-1.9c0.7-0.2,1.2,1.1,2,0.8
			c0.7-0.2,0.3-1.6,1-1.9c0.8-0.2,1.2,1.1,2,0.8c0.6-0.2,0.3-1.6,0.9-1.9c0.7-0.2,1.3,1.1,2,0.8c0.6-0.2,0.3-1.6,0.9-1.9
			c0.8-0.2,1.3,1,2,0.8s0.2-1.4,1.1-1.8c0,0,1.2-0.4,1.2-1.3c0-0.2-0.2-2.1-2.3-2.5c-1.9-0.4-17.5,3.9-17.7,3.6
			c-1.5-2.9-3.2-2-3.5-2c-0.3,0.1-2,0.8-3.9,0.1c-3.8-1.7-6.8,2.6-8.9,2.1c-1.9-0.5-3.3-0.2-4.2,0.1c-0.7,0.2-1.9,1.2-4.4,0.3
			c-19.4-6.6-34.5-0.8-34.5-0.8c-8.6,2.9-9.6,0-9.6,0s-2.8-3.8,17-8.3c28.4-6.6,29.3-17.4,28.9-18.1c-0.5-1-0.6,0.2-1.5,1.2
			c-0.8,0.9-1.7,0.5-1.7,0.5c-0.9-0.5-1.5,0.6-1.5,0.6s-1.2,1.8-2.2,0.8c-1-1-2.3,1.2-2.8,1.3c-0.6,0.1-0.8-0.2-1.6-0.5
			c-1.2-0.5-2.4,1.6-3.1,1.8c-1,0.2-1.7-1.2-2.5-0.5c-2.5,1.8-2.9,2-3.6,1.3c-0.5-0.5-0.5-1.1-2.2,0.5c-1.5,1.4-2.2,1.6-2.7,0.8
			c-0.6-0.8-0.5-2.1-2.9,0.3c-1.2,1.2-1.8,1.2-2.5,0.6c-0.5-0.4-0.5-2.2-2.2-0.5c-1.6,1.5-2.8,2.2-3.2,0.8c-0.5-1.5-2.4,0.3-2.9,0.7
			c-0.5,0.4-1.4,1.5-2.1,0.4c-0.7-1.2-2.3,0.5-3.3,1.6c-0.8,0.8-1.4,0.2-2.2-0.3C91.6,45,89,48.8,88.7,49c-0.2,0.2-0.5,0-1.1-0.5
			c-0.9-0.8-3.5,3.6-3.9,3.9c0,0-0.2,0.4-0.8-0.3c-1-0.9-6.3,5.9-8.3,13.8c-2.5,10,1.5,17.7,1.5,17.7s1.2,0,1.7-0.8l0.8-1.8
			c0.6-1.5,1.7-1,1.7-1l-2.5,7.4c-0.4,1-0.2,2.3,0.7,3.6c0.8,1.3,1.4,2.2,2,2.8c2,1.9,1.8-0.3,1.9-0.6c0.2-1.2,1.5-0.3,2.6,0.3
			c1.9,1.1,1.7-1.3,2.1-2.1c0.3-0.5,1.2-0.5,2.2,0.3c0.8,0.7,1.5-1.5,1.5-1.5c1-4.7-1.3-5.3-2.5-5.3l-2.5-0.1c0,0,0.2-0.7,0.5-1.4
			l0.1-0.5c2.8-6.9-1.9-8.2-3.2-8.1c-1.5,0.2-1.4-0.8-1.4-0.8s8.5-1.8,6.9,7c0,0-0.3,1.5-0.5,2.3l2.3,0.2c1.9,0.2,2.3,2.5,2.3,2.5
			s7.3,1.9,11.3,1.2c0,0,1.9-0.5,2.3-1.5c0,0,2.6-6.3,10.4-6.5c0,0,0.3,0.8-1,1.2c-1.5,0.5-6.4,0.9-7.5,6.6l0,0
			c-0.1,0.9,0.2,2.9,2.2,3.9c1.7,0.8,2.3,3.9,2.7,4.8c1,2.4,2.5,0.1,2.5,0.1s0.9-1.9,1.8-0.8c1.4,1.9,2,0.9,2.3-0.2
			c0.3-1.2,0.8-1.8,2.3-0.3c0.6,0.7,1.9,0.2,1.9-1c0.2-2.5,1.9-0.5,2.2-0.4c0.3,0.1,2-0.3,1.1-3.1c0,0-1.3-2.7-7.3-3.8
			c-1.4-0.2-1.2-1.3-1.2-1.3l1.3,0.2c0.4,0.1,3.9,0.5,4.2,0.5c14.6,1.5,25.7-3.5,26-3.9c11.3,2.2,26.8,1.5,29.6,0.4
			C183,81.1,183.2,79.4,182.8,79L182.8,79z M159.4,60.8c0.2-0.4,0.5-0.6,0.7-0.7c0.8-0.5,1.5,1.1,1.3,1.2l0,0l0,0
			c-0.2,0.1-1.9,0.5-2,0.5C159.1,61.5,159.4,60.8,159.4,60.8L159.4,60.8z M153,61.4c0,0,0.2-0.3,0.6-0.4c0.4-0.2,1.1-0.2,1.9,0.4
			c0.9,0.6,0.9,1.1,0.9,1.1c-0.1,0-0.1,0-0.2,0.1c-0.7,0.3-3.5,0.6-3.5,0.6C152.4,62.5,152.5,61.8,153,61.4z M99.6,47.5
			c0.5,0.4,0,2.5-0.3,2.2l-2.5-1.2C96.7,48.4,99,47.1,99.6,47.5L99.6,47.5z M95.5,48.9c0.5,0.4,0,2.5-0.3,2.2l-2.5-1.3
			C92.7,49.7,95,48.5,95.5,48.9z M94.1,53c0.5,0.4,0,2.5-0.3,2.2L91.3,54C91.3,53.9,93.6,52.6,94.1,53L94.1,53z M91.8,58.7l-2.5-1.3
			c0,0,2.3-1.2,2.8-0.8C92.5,56.8,92.1,59,91.8,58.7z M91.3,62.9l-2.5-1.4c0,0,2.3-1.2,2.8-0.8C92.1,61.1,91.6,63.1,91.3,62.9
			L91.3,62.9z M91.2,50.3c0.5,0.4,0,2.5-0.3,2.2l-2.5-1.3C88.4,51.2,90.8,49.9,91.2,50.3L91.2,50.3z M89.1,53.6
			c0.5,0.4,0,2.5-0.3,2.2l-2.5-1.2C86.3,54.5,88.6,53.3,89.1,53.6L89.1,53.6z M84.7,58.7c0,0,2.3-1.2,2.8-0.8c0.5,0.4,0,2.5-0.3,2.2
			L84.7,58.7z M86.6,64.1l-2.5-1.3c0,0,2.3-1.2,2.8-0.8C87.4,62.2,86.9,64.4,86.6,64.1z M84.8,55.1c0.5,0.4,0,2.5-0.3,2.2L82,56
			C82,56,84.4,54.7,84.8,55.1L84.8,55.1z M82.6,59.4c0.5,0.4,0,2.5-0.3,2.2l-2.5-1.3C79.8,60.3,82.1,59,82.6,59.4z M79.3,64.5
			c0,0,2.3-1.2,2.8-0.8c0.5,0.4,0,2.5-0.3,2.2L79.3,64.5z M83.7,69.3L81.3,68c0,0,2.3-1.2,2.8-0.8C84.6,67.5,84.1,69.6,83.7,69.3
			L83.7,69.3z M87.3,72.2l-2.5-1.3c0,0,2.3-1.2,2.8-0.8C88.1,70.4,87.7,72.5,87.3,72.2z M88.4,67.7L86,66.4c0,0,2.3-1.2,2.8-0.8
			C89.2,65.9,88.8,68,88.4,67.7L88.4,67.7z M91.7,74.1l-2.5-1.3c0,0,2.3-1.2,2.8-0.8C92.5,72.3,92.1,74.4,91.7,74.1z M92.8,70
			l-2.5-1.3c0,0,2.3-1.2,2.8-0.8C93.7,68.2,93.2,70.3,92.8,70L92.8,70z M93.7,66.1l-2.5-1.3c0,0,2.3-1.2,2.8-0.8
			C94.5,64.3,94.1,66.4,93.7,66.1L93.7,66.1z M97.2,73.6l-2.5-1.3c0,0,2.3-1.2,2.8-0.8C98,71.8,97.6,73.9,97.2,73.6z M98.3,69.5
			l-2.5-1.3c0,0,2.3-1.2,2.8-0.8C99,67.7,98.6,69.9,98.3,69.5L98.3,69.5z M99.2,65.1l-2.5-1.3c0,0,2.3-1.2,2.8-0.8
			C99.9,63.4,99.5,65.5,99.2,65.1L99.2,65.1z M102.6,72.9l-2.5-1.3c0,0,2.3-1.2,2.8-0.8C103.4,71,103,73.2,102.6,72.9L102.6,72.9z
			 M103.4,68.5l-2.5-1.3c0,0,2.3-1.2,2.8-0.8C104.3,66.6,103.8,68.8,103.4,68.5L103.4,68.5z M104.3,64l-2.5-1.3c0,0,2.3-1.2,2.8-0.8
			C105.1,62.1,104.7,64.3,104.3,64L104.3,64z M108,71.1l-2.5-1.3c0,0,2.3-1.2,2.8-0.8C108.8,69.3,108.4,71.5,108,71.1z M108.7,66.8
			l-2.5-1.3c0,0,2.3-1.2,2.8-0.8C109.5,65,109.1,67.1,108.7,66.8L108.7,66.8z M109.5,62.5l-2.5-1.3c0,0,2.3-1.2,2.8-0.9
			C110.4,60.7,109.9,62.9,109.5,62.5L109.5,62.5z M113.3,70.2l-2.5-1.3c0,0,2.3-1.2,2.8-0.8C114.1,68.4,113.7,70.5,113.3,70.2
			L113.3,70.2z M114,66.1l-2.5-1.3c0,0,2.3-1.2,2.8-0.8C114.8,64.3,114.4,66.5,114,66.1L114,66.1z M114.8,61.8l-2.5-1.3
			c0,0,2.3-1.2,2.8-0.8C115.6,60.1,115.2,62.1,114.8,61.8L114.8,61.8z M118.2,70.3l-2.5-1.3c0,0,2.3-1.2,2.8-0.8
			C119.1,68.5,118.5,70.6,118.2,70.3L118.2,70.3z M119.1,65.9l-2.5-1.3c0,0,2.3-1.2,2.8-0.8C119.9,64.1,119.4,66.2,119.1,65.9z
			 M120,61.6l-2.5-1.3c0,0,2.3-1.2,2.8-0.8C120.8,59.8,120.3,61.9,120,61.6L120,61.6z M123.4,70.3l-2.5-1.3c0,0,2.3-1.2,2.8-0.8
			C124.2,68.5,123.7,70.6,123.4,70.3L123.4,70.3z M124.2,66.1l-2.5-1.3c0,0,2.3-1.2,2.8-0.8C125,64.4,124.5,66.5,124.2,66.1z
			 M125.1,62l-2.5-1.3c0,0,2.3-1.2,2.8-0.8C126,60.1,125.5,62.3,125.1,62L125.1,62z M128.2,70.9l-2.5-1.3c0,0,2.3-1.2,2.8-0.8
			C129,69.1,128.6,71.2,128.2,70.9L128.2,70.9z M129.1,66.9l-2.5-1.3c0,0,2.3-1.2,2.8-0.8C129.9,65.1,129.4,67.2,129.1,66.9
			L129.1,66.9z M130,62.9l-2.5-1.3c0,0,2.3-1.2,2.8-0.9C130.8,61.1,130.4,63.1,130,62.9L130,62.9z M133.9,67.8l-2.5-1.3
			c0,0,2.3-1.2,2.8-0.9C134.7,66,134.2,68.1,133.9,67.8z"/>
	</g>
	<path d="M90.8,105.7c-0.3-0.8-0.9-1.2-2.1-1.2c-0.1,0-5.3,0-5.3,0l-7.8,21.1h3.8c0.3,0,0.6,0,0.9-0.2c0.8-0.3,1.1-1.2,1.2-1.5
		c0,0,1.1-2.9,1.2-3.2h7.8c0.2,0.5,1.6,4.8,1.6,4.8h5.1L94,115.4L90.8,105.7z M89.3,116.5h-5.2c0.5-1.5,2-5.5,2.6-7.1
		C87.1,111.1,89.3,116.5,89.3,116.5z M127.7,104.3L127.7,104.3c-6,0-10.4,4.6-10.4,10.8c0,6.1,4.5,10.7,10.4,10.7
		c5.9,0,10.6-4.7,10.6-10.7C138.3,109.1,133.7,104.3,127.7,104.3 M127.8,121.1c-3.1,0-5.5-2.7-5.5-6.1c0-3.4,2.4-5.9,5.5-5.9
		c3.1,0,5.4,2.5,5.4,5.9C133.2,118.5,130.9,121.1,127.8,121.1z M152,113.2l-0.2-0.1l-2-0.6l-0.3-0.1c-1.6-0.6-2.8-1.1-2.8-2v-0.1
		c0.2-1.5,3.1-1.5,3.1-1.5c1.6,0,2.9,0.2,4.4,0.8l0,0h0.1c0.4,0.1,0.7,0.1,0.9,0l0.5-0.2c0.6-0.3,1.2-2.2,1.5-2.9l0.1-0.2l-0.2-0.2
		c-0.1-0.1-0.5-0.5-2.2-1.1c-1.7-0.6-4-0.7-4-0.7h-1.2c-6.1,0-8.4,3.8-8.5,6.3c-0.1,2.5,1.4,3.8,3.5,5c0.9,0.5,2.5,1,3.8,1.3
		l1.2,0.4c2.2,0.7,3.2,1.5,3,2.7c-0.1,0.4-0.8,1.1-2.6,1.1c-1.3,0-2.5-0.2-3.8-0.6c-0.6-0.2-1.2-0.5-1.9-0.9l0,0h-0.1
		c-0.4-0.2-0.7-0.2-1-0.2l-0.5,0.1c-0.7,0.2-1.7,2-2.1,2.8l-0.2,0.3l0.2,0.2c0.1,0,1.2,0.9,2.1,1.5c1.1,0.6,2.3,1,3.7,1.3
		c0.6,0.1,1.5,0.2,2.9,0.2c4.7,0,8.2-2.4,8.6-5.9C158.4,116.6,156.4,114.5,152,113.2L152,113.2z M162.1,104.5c-0.2,0-1.2,0-1.9,0.5
		c-0.3,0.2-0.4,0.6-0.4,0.9v3.3c0,0,5.7,0,6.5,0v16.3h5.3v-16.2c0.7,0,4.2,0,4.2,0c0.2,0,1.2,0,1.9-0.5c0.2-0.2,0.4-0.6,0.4-1v-3.3
		H162.1z M71.4,120.9h-5.9c0-0.8,0-14.4,0-14.4c0-0.6-0.2-1.1-0.5-1.4c-0.5-0.5-1.5-0.5-1.8-0.5H60v21.1h13.2v-3.4
		C73.3,121.8,73.1,120.9,71.4,120.9L71.4,120.9z M109.2,109c1.3-0.1,2.4,0,3.4,0.3c0.5,0.2,1,0.2,1.5,0.1l0.4-0.2
		c0.6-0.4,1-2.2,1.2-3.3l0.1-0.2l-0.2-0.2c-0.1-0.1-0.2-0.2-2.2-0.7c-1.3-0.4-2.7-0.5-4.1-0.5h-0.1c-4.4,0-11,2.9-11.2,10.9v0.1
		c0.2,7.9,6.8,10.9,11.2,10.9h0.1c0.8,0,2.3-0.1,4.1-0.5c1.9-0.5,2.1-0.6,2.2-0.7l0.2-0.2l-0.1-0.2c-0.2-1.1-0.6-2.9-1.2-3.3l0,0
		l-0.4-0.2c-0.4-0.1-0.9-0.1-1.5,0.1c-1,0.3-2.1,0.4-3.4,0.3c-3.3-0.3-5.3-2.5-5.5-6.2C103.9,111.6,105.9,109.3,109.2,109L109.2,109
		z M193.6,125.6c0.8,0,2.2-0.5,2.2-2.2v-2.6h-9.3c0,0,0-3,0-3.5h7.7v-4.9c0,0-6.9,0-7.6,0c0-0.5,0-2.5,0-3c0.8,0,7.1,0,7.1,0
		c0.2,0,1.2,0,1.9-0.5c0.4-0.4,0.4-1.2,0.4-1.5v-2.8h-14.7v21.1L193.6,125.6z"/>
</g>
</svg>
