<?xml version="1.0" encoding="utf-8"?>
<!-- Generator: Adobe Illustrator 27.9.0, SVG Export Plug-In . SVG Version: 6.00 Build 0)  -->
<svg version="1.1" id="Layer_1" xmlns="http://www.w3.org/2000/svg" xmlns:xlink="http://www.w3.org/1999/xlink" x="0px" y="0px"
	 width="256px" height="160px" viewBox="0 0 256 160" enable-background="new 0 0 256 160" xml:space="preserve">
<g>
	<path fill="#015294" d="M178.4,76.3c-0.6-8.6-3.5-17.1-8.3-24.3c-4.7-7-11.2-13-18.8-16.8c-5.9-3.1-12.4-4.9-19-5.4
		c-1.5-0.4-2.9,0-4.5,0c-3.6,10.2-7.2,20.3-10.8,30.5c2.6,0.1,5.2,0,7.8,0c1.9,0.1,3.9,0.9,4.9,2.5c1.2,1.9,1.2,4.3,0.4,6.3
		c-3.6,10-7.1,19.9-10.6,29.8c-3.1,0-6.2,0-9.4,0c-0.4,0-0.9,0-1.3-0.1c4-11,7.8-21.9,11.8-32.9c-1.9,0-3.7,0-5.6,0
		c-0.3,0.6-0.4,1.2-0.7,1.9c-3.6,10.2-7.2,20.2-10.8,30.4c-0.2,0.3-0.1,0.8-0.5,0.8c-2.9,0-6,0-8.9,0c-0.5,0-1.1,0.1-1.6-0.1
		c8.2-22.6,16.1-45.3,24.3-67.9c-16,3.4-29.7,15.3-35.7,30.5c-2.4,6-3.5,12.5-3.7,19c0.2,3.1,0.4,6.2,1,9.3
		c2,10.2,7.1,19.7,14.6,26.8c6.2,6,14,10.3,22.4,12.5c8.1-22.7,16.2-45.4,24.3-68.2c0.1-0.2,0.3-0.5,0.4-0.6c5,0.1,10,0,15,0
		c1.6,0,3.3-0.2,4.9,0.4c1.9,0.5,3.6,1.8,4.1,3.7c0.4,1.5,0.1,3-0.4,4.5c-3.2,9.4-6.6,18.5-9.9,27.8c-0.8,2.4-3.3,3.9-5.8,4
		c-3.9,0.1-7.7,0-11.7,0.1c-3.6,10-7.1,19.9-10.7,29.9c0.9,0.4,1.9,0.1,2.8,0.2c1.4,0.1,2.9-0.2,4.4-0.3c9.5-0.9,18.7-4.5,26.2-10.4
		c6.1-4.7,11-10.8,14.3-17.6c2.9-5.9,4.5-12.4,5.1-19C178.2,80.9,178.3,78.6,178.4,76.3z"/>
	<path fill="#015294" d="M144,94.6c3.3-9.6,6.9-19.1,10.2-28.8c-1.4,0-2.8,0-4.4,0c-0.4,0.1-1-0.2-1.2,0.2
		c-3.4,9.5-6.8,19.1-10.2,28.6C140.2,94.6,142.2,94.7,144,94.6z"/>
</g>
</svg>
