<?xml version="1.0" encoding="utf-8"?>
<!-- Generator: Adobe Illustrator 27.9.0, SVG Export Plug-In . SVG Version: 6.00 Build 0)  -->
<svg version="1.1" id="Layer_1" xmlns="http://www.w3.org/2000/svg" xmlns:xlink="http://www.w3.org/1999/xlink" x="0px" y="0px"
	 width="256px" height="160px" viewBox="0 0 256 160" enable-background="new 0 0 256 160" xml:space="preserve">
<g>
	<path fill-rule="evenodd" clip-rule="evenodd" d="M44,97.8v-3.5H46c1,0,2.9-0.2,2.9-2.5v-21c0-1.3-0.1-4.3-2.5-4.3h-2.2l2.5-4.5
		h149.8v4.5H58.6c-1.3,0-2.9,0.3-2.9,2.8v6.6c0.3,0.8,1.5,1.1,2,1.1s2.6-0.1,2.6-3.3h2.9v10.8h-2.9c0-1-1.1-2.6-2.5-2.7
		c-1.2-0.1-2.1,0.3-2.1,1.9v8.2c0,0.9,1.1,2.5,3.6,2.5h1.8v3.5L44,97.8L44,97.8z"/>
	<path fill-rule="evenodd" clip-rule="evenodd" d="M130.5,71.5c0,0.8,1,1.6,1.6,1.8c0.7-0.5,4.3-2.5,7.1-2.5s4.3,1.5,4.3,3.7v10.7
		h-6.8v-8.3c0-1.1-0.3-1.9-1.3-1.9c-1-0.1-3.5,1.9-4.2,2.9v14.8c0,1.4,1.4,2.3,2.5,2.3v2.8h-11.9v-2.9c1.2,0,2.4-0.4,2.5-2.1V76.3
		c0-0.5-0.8-1.9-2.5-1.9v-2.9H130.5z M212,71.5h-11.9v2.9c1.8,0,2.5,1.4,2.5,1.9v16.5c-0.1,1.8-1.4,2.1-2.5,2.1v2.9H212v-2.8
		c-1.2,0-2.5-1-2.5-2.3V76.4c0-1.2,1.3-2,2.5-2V71.5z M104.2,71.5c0,0.8,1,1.6,1.6,1.8c0.7-0.5,4.3-2.5,7.1-2.5
		c2.8,0,4.3,1.5,4.3,3.7v10.7h-6.8v-8.3c0-1.1-0.3-1.9-1.3-1.9c-1-0.1-3.5,1.9-4.2,2.9v14.8c0,1.4,1.4,2.3,2.5,2.3v2.8H95.5v-2.9
		c1.2,0,2.4-0.4,2.5-2.1V76.3c0-0.5-0.8-1.9-2.5-1.9v-2.9H104.2z M183.2,71.5c0,0.8,1,1.6,1.6,1.8c0.7-0.5,4.3-2.5,7.1-2.5
		c2.8,0,4.3,1.5,4.3,3.7v10.7h-6.8v-8.3c0-1.1-0.3-1.9-1.3-1.9c-1-0.1-3.5,1.9-4.2,2.9v14.8c0,1.4,1.4,2.3,2.5,2.3v2.8h-11.9v-2.9
		c1.2,0,2.4-0.4,2.5-2.1V76.3c0-0.5-0.8-1.9-2.5-1.9v-2.9H183.2z M90.4,89.6h-6.8v2.6c0,1.1-0.2,3.3-3.4,3.3c-3.2,0-4.2-2.1-4.2-3.7
		v-5.6c0-0.5,0.4-1.2,1.1-1.2h13.3V78c0-3.2-0.7-4.2-2-5.6c-1.4-1.4-6.1-1.8-8.3-1.8c-5.5,0-7.2,0.8-8.8,2c-1.6,1.3-2.1,3.9-2.1,5.8
		v11c0,2.9,0.6,5,2.4,6.8s7.5,1.9,8.7,1.9c1.2,0,5.1,0.1,7.9-1.9C90.9,94.3,90.4,89.6,90.4,89.6L90.4,89.6z M76,77.5
		c0-1.6,0.5-3.9,3.9-3.9s3.7,2.5,3.7,3.9V81c0,0.6-0.5,1.2-1.2,1.2h-5.3c-0.6,0-1.2-0.5-1.2-1.1L76,77.5L76,77.5z M168.5,92.6V78
		c0-2.2-0.1-4.6-2.4-6.2c-2.3-1.7-6.1-1.6-7.6-1.6s-6.3,0-8.6,2.5c-2.2,2.5-1.9,5-1.9,5.9h6.4c0,0,0.4-3.3,1.3-4.2
		c0.9-0.9,3.2-1.9,5-0.3c0.7,0.6,0.9,1.3,0.9,2.1v4.2c0,0.4-0.4,1-0.9,1c0,0-8.9,0.2-10.4,1.4c-1.6,1.2-2.9,1.9-2.9,6.2
		c0,4.3,1.1,5.9,2.3,6.8c1.3,0.9,1.9,1.9,7.6,1.9H171v-2.8C169.8,94.9,168.5,94,168.5,92.6L168.5,92.6z M161.6,94.3
		c0,0.2-0.4,0.6-0.7,0.6h-3.4c-2.4,0-3.1-2-3.1-3.3v-3.7c0-3.7,3.8-3.6,5.3-3.6s1.8,1.3,1.8,2.1V94.3L161.6,94.3z M205.6,66.4
		c3.4,0,6.2-1,6.2-2.3c0-1.3-2.8-2.3-6.2-2.3s-6.2,1-6.2,2.3C199.4,65.3,202.2,66.4,205.6,66.4z"/>
</g>
</svg>
