<?xml version="1.0" encoding="utf-8"?>
<!-- Generator: Adobe Illustrator 27.9.0, SVG Export Plug-In . SVG Version: 6.00 Build 0)  -->
<svg version="1.1" id="Layer_1" xmlns="http://www.w3.org/2000/svg" xmlns:xlink="http://www.w3.org/1999/xlink" x="0px" y="0px"
	 width="256px" height="160px" viewBox="0 0 256 160" enable-background="new 0 0 256 160" xml:space="preserve">
<path fill="#F0141E" d="M56.3,51.3h143.4v57.3H56.3V51.3z"/>
<path fill="#FFFFFF" d="M177.6,64.7v-8.8h-24.6l-4,29.3l-4-29.3h-8.9l1,7.8c-1-2-4.6-7.8-12.6-7.8c-0.1,0-8.9,0-8.9,0l0,42.7
	l-6.5-42.7l-11.6,0l-6.7,44.3l0-44.3H79.7l-4,24.9l-3.9-24.9H60.7v48.2h8.8V80.9l4,23.2h4.7L82,80.9v23.2h16.9l1-7.4h6.8l1,7.4
	l16.6,0h0v0h0V88.4l2-0.3l4.2,15.9h8.6l0,0h0l-5.5-18.7c2.8-2.1,6-7.3,5.1-12.3v0c0,0.1,5.2,31,5.2,31l10.2,0l7-43.6v43.6h16.5v-8.7
	h-7.8v-11h7.8v-8.8h-7.8V64.7L177.6,64.7L177.6,64.7z M101,89l2.4-20.6l2.5,20.6H101z M126.4,79.5c-0.7,0.3-1.4,0.5-2.1,0.5V64.5
	c0,0,0,0,0,0c0.7,0,5.8,0.2,5.8,7.7C130.2,76.1,128.4,78.5,126.4,79.5L126.4,79.5z M195.3,95.4v8.7h-16.1V55.9h8.7v39.5H195.3z"/>
</svg>
