<?xml version="1.0" encoding="utf-8"?>
<!-- Generator: Adobe Illustrator 27.9.0, SVG Export Plug-In . SVG Version: 6.00 Build 0)  -->
<svg version="1.1" id="Layer_1" xmlns="http://www.w3.org/2000/svg" xmlns:xlink="http://www.w3.org/1999/xlink" x="0px" y="0px"
	 width="256px" height="160px" viewBox="0 0 256 160" enable-background="new 0 0 256 160" xml:space="preserve">
<path fill="#E50914" d="M204.2,78.9l9.2,24.2c-2.7-0.3-5.4-0.9-8.1-1.3l-5.1-13.3l-5.3,12.3c-2.6-0.4-5.1-0.6-7.8-0.9l9.2-21.2
	l-8.5-21.7h7.8l4.7,12.1l5.1-12.1h7.8L204.2,78.9z M181.8,56.9h-7.1v41.9c2.3,0.2,4.7,0.3,7.1,0.5V56.9z M168.6,98.4
	c-6.5-0.4-12.9-0.8-19.4-1V57h7.2v33.7c4.1,0.1,8.3,0.4,12.3,0.6L168.6,98.4L168.6,98.4z M141.4,73.3v7.2h-9.9V97h-7.1v-40h20.2v7.2
	h-13.1v9.2L141.4,73.3L141.4,73.3z M112.4,64.2v33.1c-2.4,0-4.9,0-7.2,0.1V64.1h-7.4v-7.2h22.1v7.2L112.4,64.2L112.4,64.2z
	 M89.9,80.9c-3.1,0-6.9,0-9.6,0.2v10.7c4.3-0.3,8.5-0.6,12.7-0.8v6.9l-20,1.7V57h20v7.2H80.3v9.7c2.8,0,7.1-0.2,9.6-0.2V80.9
	L89.9,80.9z M50,76.9v25.2c-2.6,0.3-4.9,0.6-7.3,1V57h6.9l9.3,26.2V57h7.2v43.1c-2.5,0.4-5.1,0.6-7.8,1L50,76.9z"/>
</svg>
