<?xml version="1.0" encoding="utf-8"?>
<!-- Generator: Adobe Illustrator 27.9.0, SVG Export Plug-In . SVG Version: 6.00 Build 0)  -->
<svg version="1.1" id="Layer_1" xmlns="http://www.w3.org/2000/svg" xmlns:xlink="http://www.w3.org/1999/xlink" x="0px" y="0px"
	 width="256px" height="160px" viewBox="0 0 256 160" enable-background="new 0 0 256 160" xml:space="preserve">
<g>
	<path d="M76.9,74v17.2c0,0.6-0.5,1.1-1.1,1.1h-5.4c-0.6,0-1.1-0.5-1.1-1.1v-28c0-0.6,0.5-1.1,1.1-1.1h5c0.6,0,1.1,0.5,1.1,1.1v3.9
		c0,0,1.8-5.6,7.1-5.6c0,0,5.3-0.6,7.4,5.2c0,0,1.8-5.2,7.3-5.2c0,0,8.1-0.5,8.1,7.9l0.1,4.6v17.2c0,0.6-0.5,1.1-1.1,1.1l0,0H100
		c-0.6,0-1.1-0.5-1.1-1.1l0-18.8c0.2-4.3-3.3-3.9-3.3-3.9c-4.3,0.1-3.9,5.5-3.9,5.5v17.2c0,0.6-0.5,1.1-1.1,1.1h-5.4
		c-0.6,0-1.1-0.5-1.1-1.1V72.9c0,0,0.3-4.4-3.6-4.4C80.6,68.5,76.7,68,76.9,74z M217,73.9v17.2c0,0.6-0.5,1.1-1.1,1.1l-5.7,0.1
		c-0.6,0-1.1-0.5-1.1-1.1V72.9c0,0,0.3-4.4-3.6-4.4c0,0-3.7-0.2-3.7,6.7v16c0,0.6-0.5,1.1-1.1,1.1h-5.4c-0.6,0-1.1-0.5-1.1-1.1v-28
		c0-0.6,0.5-1.1,1.1-1.1h5c0.6,0,1.1,0.5,1.1,1.1c0,0,0,0,0,0v3.9c0,0,1.8-5.6,7.1-5.6c0,0,5.7-0.9,7.6,5.1
		C216.4,66.6,217,67.9,217,73.9L217,73.9z M177.8,61.4c-7,0-12.6,5.9-12.6,15.7c0,8.7,4.4,15.7,12.6,15.7c7.8,0,12.6-7,12.6-15.7
		C190.4,67.4,184.7,61.4,177.8,61.4z M182.2,77.5c0,3.7-0.5,5.7-0.5,5.7c-0.7,3.9-3.5,3.9-3.9,3.9c-0.5,0-3.3,0-3.9-3.9
		c0,0-0.5-2-0.5-5.7v-0.6c0-3.7,0.5-5.7,0.5-5.7c0.6-3.9,3.5-3.9,3.9-3.9c0.4,0,3.3,0,3.9,3.9c0,0,0.5,2,0.5,5.7V77.5z M162,67.1v-4
		c0-0.6-0.5-1.1-1.1-1.1h-18c-0.6,0-1.1,0.5-1.1,1.1c0,0,0,0,0,0v4c0,0.6,0.5,1.1,1.1,1.1h9.4l-11.1,16.1c0,0-0.4,0.7-0.4,1.4v4.9
		c0,0-0.1,1.7,1.8,0.7c0,0,3.4-2,9.1-2c0,0,5.6-0.1,9.3,2.2c0,0,1.6,0.7,1.6-0.8v-4.3c0,0,0.1-1.1-1.3-1.8c0,0-4.3-2.4-9.9-2
		L162,67.1z M65.1,87.3l-1.7-2.6c-0.5-1-0.5-2.1-0.5-2.1v-12c0.2-10.3-11.2-9.4-11.2-9.4c-10.2,0-11.7,7.9-11.7,7.9
		c-0.4,1.6,0.8,1.6,0.8,1.6l5,0.5c0,0,0.8,0.2,1.2-0.8c0,0,0.7-3.5,4.3-3.5c4,0,3.9,3.4,3.9,3.4v2.9c-8,0.3-11.6,2.5-11.6,2.5
		c-4.9,2.8-4.6,8.3-4.6,8.3c0,9,8.6,8.6,8.6,8.6c5.5,0,8.7-4,8.7-4c1,1.7,2.7,3.3,2.7,3.3c0.9,1,1.8,0.2,1.8,0.2l4-3.4
		C65.8,88.1,65.1,87.3,65.1,87.3z M50.2,87.2c-2.6,0-3.5-2.6-3.1-5.1c0.4-2.5,2.7-4.5,8.1-4.4v1.5C55.4,85.9,52.4,87.2,50.2,87.2
		L50.2,87.2z M137.4,87.3l-1.7-2.6c-0.5-1-0.5-2.1-0.5-2.1v-12c0.2-10.3-11.2-9.4-11.2-9.4c-10.2,0-11.7,7.9-11.7,7.9
		c-0.4,1.6,0.8,1.6,0.8,1.6l5,0.5c0,0,0.8,0.2,1.2-0.8c0,0,0.7-3.5,4.3-3.5c4,0,3.9,3.4,3.9,3.4v2.9c-8,0.3-11.6,2.5-11.6,2.5
		c-4.9,2.8-4.6,8.3-4.6,8.3c0,9,8.6,8.6,8.6,8.6c5.5,0,8.7-4,8.7-4c1,1.7,2.7,3.3,2.7,3.3c0.9,1,1.8,0.2,1.8,0.2l4-3.4
		C138,88.1,137.4,87.3,137.4,87.3L137.4,87.3z M122.5,87.2c-2.6,0-3.5-2.6-3.1-5.1c0.4-2.5,2.7-4.5,8.1-4.4v1.5
		C127.7,85.9,124.7,87.2,122.5,87.2L122.5,87.2z"/>
	<g>
		<path fill="#F3971B" d="M167.8,109.9c0,0-0.5,0.8,0.1,1c0,0,0.6,0.2,1.4-0.5c0,0,5.7-5,5.9-14.1c0,0,0-1.1-0.4-1.5
			c0,0-1.8-1.6-8.3-1.1c0,0-5.6,0.4-8.7,3.1c0,0-0.3,0.2-0.3,0.6c0,0-0.1,0.7,1.6,0.4c0,0,5.6-0.8,9-0.4c0,0,1.7,0.2,2.2,0.8
			c0,0,0.8,0.7,0.4,2.8C170.7,101,169.6,106.5,167.8,109.9L167.8,109.9z"/>
		<path fill="#F3971B" d="M166.7,101.1c0,0,0.8,1.1-0.5,2c0,0-14.5,11.6-38.9,11.6c0,0-25.1,1.2-46-17.8c0,0-0.7-0.6-0.3-1.2
			c0,0,0.4-0.6,1.5,0c0,0,19.7,12.3,45.6,12.3c0,0,18,0.7,36.4-7.2C164.4,100.9,165.9,100.1,166.7,101.1L166.7,101.1z"/>
	</g>
</g>
</svg>
