<?xml version="1.0" encoding="utf-8"?>
<!-- Generator: Adobe Illustrator 27.9.0, SVG Export Plug-In . SVG Version: 6.00 Build 0)  -->
<svg version="1.1" id="Layer_1" xmlns="http://www.w3.org/2000/svg" xmlns:xlink="http://www.w3.org/1999/xlink" x="0px" y="0px"
	 width="256px" height="160px" viewBox="0 0 256 160" enable-background="new 0 0 256 160" xml:space="preserve">
<g>
	<path fill-rule="evenodd" clip-rule="evenodd" d="M83,83.3c0.5,0.3,1,0.6,1.5,0.8c1.1,0.3,2.3,0.3,3.3,0c0.6-0.2,1.1-0.4,1.5-0.8
		c0.5-0.3,0.9-0.8,1.2-1.2c0.7-0.9,1-2.1,1-3.2c0-0.6-0.1-1.1-0.3-1.7c-0.4-1.1-1.1-2.1-2-2.8c-0.5-0.3-1-0.6-1.5-0.8
		c-1.1-0.3-2.3-0.3-3.3,0c-1.1,0.4-2.1,1.1-2.8,2c-0.3,0.5-0.6,1-0.8,1.5c-0.2,0.5-0.3,1.1-0.3,1.7s0.1,1.1,0.3,1.7
		C81.3,81.6,82,82.6,83,83.3z M94.9,52H77.5l8.7,19.7L94.9,52L94.9,52z"/>
	<path fill-rule="evenodd" clip-rule="evenodd" d="M100.4,99.5c0,0.5-0.1,1.1-0.3,1.6c-0.4,1-1.2,1.8-2.2,2.2
		c-0.5,0.2-1,0.3-1.6,0.3h-0.8c-0.5,0-1.1-0.1-1.6-0.3c-1-0.4-1.8-1.2-2.2-2.2c-0.2-0.5-0.3-1-0.3-1.6l0-9.2l-9.4,0v7
		c0,1.4,0.3,2.8,0.8,4.1c0.5,1.3,1.3,2.5,2.3,3.5c1,1,2.2,1.8,3.5,2.3c1.3,0.5,2.7,0.8,4.1,0.8h5.8c1.4,0,2.8-0.3,4.1-0.8
		c1.3-0.5,2.5-1.3,3.5-2.3c1-1,1.8-2.2,2.3-3.5c0.5-1.3,0.8-2.7,0.8-4.1V52.1l-9.1,0L100.4,99.5L100.4,99.5z M169.7,90.2l0,8.2
		c0,0.5-0.1,1.1-0.3,1.6c-0.2,0.5-0.5,0.9-0.9,1.3c-0.4,0.4-0.8,0.7-1.3,0.9c-0.5,0.2-1,0.3-1.6,0.3h-0.8c-0.5,0-1.1-0.1-1.6-0.3
		c-0.5-0.2-0.9-0.5-1.3-0.9c-0.4-0.4-0.7-0.8-0.9-1.3c-0.2-0.5-0.3-1-0.3-1.6l0-46.4l-9.1,0l0,54.8h26.8l0-16.6L169.7,90.2
		L169.7,90.2z M144.1,82c-0.4-1.1-1.1-2-1.9-2.8c-0.8-0.8-1.7-1.3-2.7-1.7c0.8-0.4,1.6-0.9,2.3-1.6c0.7-0.7,1.3-1.4,1.7-2.3
		c0.4-0.9,0.6-1.8,0.6-2.8l0-10c0-1.2-0.2-2.3-0.7-3.4s-1.1-2-1.9-2.9c-0.8-0.8-1.8-1.5-2.8-1.9c-1.1-0.4-2.2-0.7-3.4-0.7h-18.1
		v54.9H136c3.6,0,6.8-2.1,8.1-5.4c0.4-1.1,0.7-2.2,0.7-3.4c0-4.2,0-8.4,0-12.6C144.8,84.3,144.5,83.1,144.1,82L144.1,82z M126,56.7
		l4.8,0c1.1,0,2.1,0.4,2.9,1.2c0.4,0.4,0.7,0.8,0.9,1.3s0.3,1,0.3,1.6l0,11c0,1.4-0.8,2.6-2.1,3.1c-0.4,0.2-0.8,0.3-1.3,0.3l-5.5,0
		L126,56.7L126,56.7z M135,99.7c-0.3,0.8-1,1.5-1.8,1.8c-0.4,0.2-0.8,0.3-1.3,0.3l-5.8,0V80.1l5.1,0c1.1,0,2.1,0.4,2.9,1.2
		c0.4,0.4,0.7,0.8,0.9,1.3c0.2,0.5,0.3,1,0.3,1.6l0,14.3C135.2,98.9,135.1,99.3,135,99.7L135,99.7z"/>
</g>
</svg>
