<?xml version="1.0" encoding="utf-8"?>
<!-- Generator: Adobe Illustrator 27.9.0, SVG Export Plug-In . SVG Version: 6.00 Build 0)  -->
<svg version="1.1" id="Layer_1" xmlns="http://www.w3.org/2000/svg" xmlns:xlink="http://www.w3.org/1999/xlink" x="0px" y="0px"
	 width="256px" height="160px" viewBox="0 0 256 160" enable-background="new 0 0 256 160" xml:space="preserve">
<g>
	<path fill="#FF5A00" d="M212.3,97.6c0-2.6-1.8-4.5-4.4-4.5c-2.5,0-4.4,1.9-4.4,4.5c0,2.6,1.8,4.5,4.4,4.5
		C210.5,102.1,212.3,100.2,212.3,97.6z M206.7,97.8v3h-1v-6.5h2.4c1.4,0,2,0.6,2,1.8c0,0.7-0.5,1.3-1.1,1.4l0,0
		c0.5,0.1,0.8,0.6,0.9,1.5c0.1,0.6,0.2,1.6,0.4,1.8h-1.1c-0.3-0.6-0.3-1.5-0.4-2.2c-0.2-0.5-0.4-0.8-1.1-0.8L206.7,97.8L206.7,97.8
		L206.7,97.8L206.7,97.8z M207.9,97c1,0,1.2-0.5,1.2-1c0-0.5-0.3-1-1.2-1h-1.2v1.8L207.9,97L207.9,97z M202.4,97.6
		c0-3.2,2.6-5.4,5.5-5.4c3,0,5.5,2.2,5.5,5.4s-2.5,5.4-5.5,5.4C205,103,202.4,100.8,202.4,97.6z"/>
	<g>
		<path fill="#FF5A00" d="M183.4,102L177,95l-6.3,7.1h-13.2l12.9-14.5l-12.9-14.5h13.6l6.4,7.1l6.2-7.1h13.2l-12.8,14.4l13,14.6
			H183.4z M132.3,102V56.4h25.4v10.2h-14.6v6.5h14.6v9.8h-14.6v9h14.6V102H132.3z"/>
	</g>
	<path fill="#29007C" d="M121.5,56.4v18.7h-0.1c-2.4-2.7-5.3-3.7-8.7-3.7c-7.1,0-12.3,4.8-14.2,11.1c-2.1-7-7.6-11.2-15.7-11.2
		c-6.5,0-11.8,3-14.5,7.8v-5.9H54.8v-6.5h14.8V56.4H42.6V102h12.1V82.8h12.1c-0.3,1.5-0.5,3-0.5,4.5c0,9.5,7.2,16.2,16.6,16.2
		c7.8,0,13-3.7,15.7-10.4H88.2c-1.4,2-2.4,2.6-5.3,2.6c-3.2,0-6.1-2.9-6.1-6.2h21.2c1,7.6,6.8,14,14.9,14c3.5,0,6.7-1.7,8.6-4.6h0.1
		v3h10.7V56.3L121.5,56.4L121.5,56.4L121.5,56.4z M77.1,83c0.7-2.9,3-4.8,5.8-4.8c3.1,0,5.2,1.8,5.8,4.8H77.1z M115.1,95.1
		c-3.9,0-6.4-3.7-6.4-7.5c0-4.1,2.1-8,6.4-8c4.4,0,6.2,3.9,6.2,8C121.3,91.5,119.4,95.1,115.1,95.1z"/>
</g>
</svg>
