<?xml version="1.0" encoding="utf-8"?>
<!-- Generator: Adobe Illustrator 27.9.0, SVG Export Plug-In . SVG Version: 6.00 Build 0)  -->
<svg version="1.1" id="Layer_1" xmlns="http://www.w3.org/2000/svg" xmlns:xlink="http://www.w3.org/1999/xlink" x="0px" y="0px"
	 width="256px" height="160px" viewBox="0 0 256 160" enable-background="new 0 0 256 160" xml:space="preserve">
<g>
	<path d="M76.2,74.8c0,2.3-1.4,4-4.2,5.1c-2.2,0.9-4.9,1.3-8,1.3H51c-3.4,0-6.3-0.4-8.6-1.2c-3.2-1.1-4.8-2.8-4.8-5.1V62.3
		c0-2.3,1.6-3.9,4.9-5c2.6-0.8,5.4-1.2,8.5-1.2h5.1c1.4,0,2.1,0.6,2.1,1.9c0,1.2-0.7,1.9-2.1,1.9h-1.6c-0.1,0-0.2,0-0.3,0
		c-0.4,0-0.7,0-1.1,0c-0.3,0-0.6,0-0.7,0c-6.1,0-9.2,0.9-9.2,2.6v12.6c0,1.7,2.6,2.6,7.7,2.6H64c1.2,0,2.5-0.2,3.9-0.6
		c1.7-0.5,2.6-1.1,2.6-1.9v-2.7h-8c-1.1,0-1.9-0.9-1.9-2c0-1.1,0.9-2,1.9-2h9.6c0.5,0,1.2,0,2.1,0c1.3,0,2,0.5,2,1.6V74.8 M109.9,75
		v-7.6c0-1.6-2.2-2.4-6.7-2.4h-8.8c-1.6,0-3.1,0.2-4.4,0.5c-1.8,0.5-2.7,1.2-2.7,2.2V75c0,0.9,0.9,1.6,2.8,2.1
		c1.3,0.3,2.7,0.4,4.4,0.4h8.8c1.4,0,2.7-0.2,4.1-0.5C109,76.5,109.9,75.9,109.9,75 M115.4,75c0,2.3-1.4,3.9-4.2,4.9
		c-1.9,0.8-4.6,1.2-7.8,1.2h-9c-3,0-5.7-0.4-8.1-1.2c-3-1.1-4.5-2.7-4.5-4.9v-7.3c0-2.2,1.5-3.9,4.4-5c2.2-0.9,4.9-1.3,8.1-1.3h9.1
		c8,0,12,2.1,12,6.3L115.4,75L115.4,75z M181,63.4c0,1.1-0.8,1.6-2.4,1.6c-0.2,0-0.5,0-0.9,0h-1c-4.2,0-6.2,0.8-6.2,2.5v12
		c0,0.8-0.4,1.3-1.2,1.5c-0.3,0.1-1.1,0.1-2.4,0.1c-1.3,0-1.9-0.6-1.9-1.6v-12c0-2.6,1.6-4.4,5-5.3c2-0.6,5-0.8,9-0.8
		C180.3,61.4,181,62,181,63.4 M212.9,75v-7.6c0-1.6-2.2-2.4-6.7-2.4h-8.9c-1.6,0-3.1,0.2-4.4,0.5c-1.8,0.5-2.7,1.2-2.7,2.2V75
		c0,0.9,0.9,1.6,2.8,2.1c1.3,0.3,2.7,0.4,4.4,0.4h8.8c1.4,0,2.8-0.2,4.1-0.5C212,76.5,212.9,75.9,212.9,75 M218.4,75
		c0,2.3-1.4,3.9-4.2,4.9c-1.9,0.8-4.6,1.2-7.8,1.2h-9c-3,0-5.7-0.4-8.1-1.2c-3-1.1-4.5-2.7-4.5-4.9v-7.3c0-2.2,1.5-3.9,4.4-5
		c2.2-0.9,4.9-1.3,8.1-1.3h9.1c8,0,12,2.1,12,6.3L218.4,75L218.4,75L218.4,75z M154.4,65.2v-3.4c0-1.4-2.5-2.2-7.4-2.2h-20.2v8.7
		h20.2C151.9,68.3,154.4,67.3,154.4,65.2 M160.1,65.4c0,2.5-1.6,4.3-4.7,5.5c-2.4,0.8-5.3,1.2-8.8,1.2h-19.9v7.4
		c0,0.8-0.4,1.3-1.2,1.5c-0.2,0.1-1.1,0.1-2.5,0.1c-1.3,0-2-0.6-2-1.6V57.5c0-1.1,0.7-1.6,2-1.6h23.9c3.2,0,6,0.4,8.2,1.1
		c3.3,1,5,2.5,5,4.5L160.1,65.4L160.1,65.4z M99.2,95.8c-0.2,1-0.1,2.2,0.2,2.6c0.2,0.4,1,0.8,1.6,0.8c0.6,0,1.5-0.3,1.9-0.7
		c0.4-0.4,1-1.5,1.3-2.6c0.2-0.9,0.1-1.8-0.2-2.3c-0.2-0.4-1-1-1.6-1c-0.6,0-1.5,0.3-1.9,0.7C100.1,93.8,99.4,94.8,99.2,95.8
		 M96.6,95.9c0.4-1.6,1.4-3,2.4-3.9c1.1-0.9,2.4-1.1,3.9-1.1c1.5,0,2.6,0.6,3.3,1.5c0.6,0.9,0.9,2.1,0.6,3.7c-0.2,1-0.7,2-1.3,2.9
		c-0.5,0.8-1.3,1.2-2.1,1.6c-0.8,0.4-1.7,0.5-2.7,0.5c-1,0-1.8-0.2-2.4-0.5c-0.6-0.4-1.3-0.9-1.5-1.7C96.5,98.1,96.3,97.1,96.6,95.9
		 M86.2,100.9l2.2-9.8l4.5,0c0.1,0,3.3-0.2,3.2,2.6c-0.1,2-1,2.2-2.7,3.1c0.9,1.5,1.2,2.2,2.3,4.1h-2.9c-0.3-0.9-1.7-3.6-1.7-3.6
		l-1.5,0l-0.8,3.6L86.2,100.9 M89.9,95.5h1.7c1.6,0,2.4-2.5,0.7-2.5l-1.8,0L89.9,95.5L89.9,95.5z M79.9,91.1l7.1,0l-0.4,1.8l-4.6,0
		l-0.4,1.7l4.2,0l-0.4,1.9h-4.3l-0.5,2.5l4.5-0.1l-0.3,1.9l-7.2-0.1L79.9,91.1z M69.3,91l2.6,0L71,94.6l3.7,0.1l0.8-3.7l2.6,0
		l-2.2,9.7l-2.5,0l1-4.3l-3.7,0l-1,4.3l-2.5,0L69.3,91z M106.8,100.8h2.3l0.6-2.6h-2.3L106.8,100.8z"/>
	<path fill="#00AEEF" d="M116.2,87.3h21.7v16.6h-21.7L116.2,87.3z M142.4,87.3h21.7v16.6h-21.7V87.3z"/>
	<path fill="#005DAC" d="M168.8,87.3h21.7v16.6h-21.7V87.3z"/>
	<g>
		<path fill="#C9C9C9" d="M195.7,87.3h21.7v16.6h-21.7V87.3z"/>
		<path fill="#C9C9C9" d="M217.6,104.1h-22.1v-17h22.1V104.1z M195.9,103.7h21.3V87.5h-21.3V103.7z"/>
	</g>
	<path d="M57.9,96.4h1.7c0-0.6,0.4-0.9,1.2-0.9c0.7,0,1.1,0.2,1.1,0.6c0,0.5,0,1,0,1.5C61.6,97.3,61,97,60,97
		c-1.6,0.1-2.4,0.9-2.3,2.2c0.1,1.2,0.9,1.8,2.5,1.8c0.8,0,1.5-0.2,1.9-0.8c0,0.2,0,0.5,0,0.7h1.5c0-1.7,0-3.3,0-5
		c-0.4-0.9-1-1.3-2-1.4c-0.8,0-1.6,0-2.4,0C58.3,94.8,57.9,95.4,57.9,96.4 M50.7,94.5h1.6c1.2,0,2.2,1,2.2,2.1v1.3h-4.3
		c-0.2,1.3,0.2,1.9,1,1.9c0.3,0,0.6,0,1,0c0.6,0.1,0.8-0.3,0.8-1h1.6v0c0,1.2-1,2.1-2.2,2.1h-1.6c-1.2,0-2.2-1-2.2-2.1v-2.3
		C48.6,95.4,49.5,94.5,50.7,94.5 M40.8,91.8v9h5.2c1.4,0.1,2.1-0.7,2.2-2.4c0.1-1.2-0.4-1.9-1.5-2.3c0.8-0.2,1.3-0.8,1.3-2.1
		c-0.1-1.5-0.9-2.2-2.4-2.3C44,91.8,42.4,91.8,40.8,91.8"/>
	<path fill="#FFFFFF" d="M42.6,93.3v2.3c0.9,0,1.8,0,2.6,0c0.7,0,1.1-0.4,1.1-1.1c0-0.7-0.3-1-0.9-1.2
		C44.4,93.4,43.5,93.4,42.6,93.3 M42.6,96.9v2.5c1,0,1.9,0,2.8,0c0.8,0,1.2-0.4,1.2-1.2c0-0.7-0.4-1.1-1-1.3
		C44.5,97,43.5,97,42.6,96.9 M52.9,97c0.1-1-0.3-1.5-1.3-1.4c-1.1,0-1.6,0.5-1.4,1.4C51.1,97,52,97,52.9,97 M62,98.7
		c-0.3-0.6-1-0.7-2.1-0.5c-0.6,0.3-0.8,0.6-0.7,1.2c0.2,0.7,0.9,0.9,2.1,0.5C61.9,99.7,62.1,99.3,62,98.7"/>
</g>
</svg>
