<?xml version="1.0" encoding="utf-8"?>
<!-- Generator: Adobe Illustrator 27.9.0, SVG Export Plug-In . SVG Version: 6.00 Build 0)  -->
<svg version="1.1" id="Layer_1" xmlns="http://www.w3.org/2000/svg" xmlns:xlink="http://www.w3.org/1999/xlink" x="0px" y="0px"
	 width="256px" height="160px" viewBox="0 0 256 160" enable-background="new 0 0 256 160" xml:space="preserve">
<g>
	<path fill="#00B45E" d="M173.9,68.9V50.1h3.9v16.2C176.7,66.8,175.2,67.8,173.9,68.9z"/>
	<path fill="#00B45E" d="M167.2,74.6c1.2-1.4,2.4-2.9,3.9-4.1V50.1h-3.9V74.6z"/>
	<path fill="#00B45E" d="M122.5,89.6c0,5,2,9.8,5.6,13.5c3.6,3.6,8.4,5.6,13.5,5.6c2.1,0,4.3-0.4,5.9-1.2v-3.9
		c-1.8,0.8-4,1.2-5.9,1.2c-8.3,0-15.2-6.9-15.2-15.2v-3.5c0-8.3,7-15.2,15.2-15.2c4.1,0,7.9,1.6,10.8,4.4c2.9,2.9,4.4,6.7,4.4,10.8
		v22.6h3.9V85.4c-0.2-4.9-2.3-9.5-5.9-13c-3.6-3.4-8.3-5.3-13.2-5.3c-5,0-9.8,2-13.5,5.6c-3.6,3.6-5.6,8.4-5.6,13.5V89.6L122.5,89.6
		z"/>
	<path fill="#00B45E" d="M180.3,80.3c1.8-1.8,4-2.7,6.2-2.7c4.8,0,8.5,3.7,8.5,8.5v3.5c0,4.8-3.7,8.5-8.5,8.5
		c-2.3,0-4.5-1.3-6.3-3.6c-1.5-2-2.6-4.8-2.7-7.2l-3.1,3.9c0.6,2.9,2.1,5.7,4.3,7.7c2.2,2,5,3.1,7.8,3.1c6.8,0,12.4-5.6,12.4-12.4
		v-3.5c0-3.2-1.3-6.3-3.7-8.7c-2.4-2.4-5.5-3.7-8.7-3.7c-2,0-5.3,0.7-9.1,4.2c-1,1-3.5,3.5-5,5.2c-2.5,2.7-6.1,6.8-9.2,10.9v6
		c3.4-4.4,5.4-6.9,8.6-10.6C174.7,86.2,178.2,82.1,180.3,80.3L180.3,80.3z"/>
	<path fill="#00B45E" d="M89,73v-4.6c-3.5-1.9-7.3-2.7-12.4-2.7c-5.2,0-10.1,1.9-13.8,5.3c-3.7,3.4-5.8,8-5.8,12.8v1.2
		c0,10,8,18.1,17.8,18.1c8,0,11.3-2.6,12.1-3.4V88.1H74V92h9.4v5.8h0c-1.2,0.5-3.7,1.5-8.5,1.5c-3.7,0-7.3-1.5-9.9-4.1
		c-2.6-2.7-4.1-6.2-4.1-10.1v-1.2c0-7.7,7.2-14.2,15.7-14.2C82.6,69.6,86.1,70.6,89,73L89,73z"/>
	<path fill="#00B45E" d="M117.2,77.6c1.5,0,2.7,0.2,3.7,0.7c0.5-1.2,1-2.2,1.7-3.4c-1-0.7-3.6-1.2-5.4-1.2c-7,0-12.4,5.3-12.4,12.4
		v22.6h3.9V86.1C108.7,81.1,112.2,77.6,117.2,77.6L117.2,77.6z"/>
	<path fill="#00B45E" d="M50.4,83.8v1.2c0,6.7,2.6,12.9,7.2,17.6c4.6,4.6,10.8,7.2,17.4,7.2c5.3,0,10-1.2,14-3.6
		c3.3-2,4.7-3.9,4.8-4.1V81.4H74v3.9h15.9v15.8c-1.9,1.9-6.3,5-14.9,5c-5.6,0-10.9-2.2-14.7-6.1c-3.8-3.9-5.9-9.2-5.9-14.8v-1.2
		c0-5.4,2.4-10.7,6.6-14.7c4.3-4,9.9-6.3,15.8-6.3c5.5,0,9.3,0.8,12.4,2.7v-4.4c-3.2-1.4-7-2-12.4-2C62.4,59.3,50.4,70.5,50.4,83.8z
		"/>
	<path fill="#00B45E" d="M153.9,108.6V86.1c0-6.9-5.4-12.4-12.4-12.4c-3.2,0-6.3,1.3-8.7,3.7c-2.4,2.4-3.7,5.5-3.7,8.7v3.5
		c0,6.7,5.7,12.4,12.4,12.4c1.8,0,4.3-0.4,5.9-1.7v-4c-1.5,1.2-3.7,1.9-5.9,1.9c-4.8,0-8.5-3.7-8.5-8.5v-3.5c0-4.8,3.7-8.5,8.5-8.5
		c4.8,0,8.5,3.7,8.5,8.5v22.6L153.9,108.6L153.9,108.6z"/>
	<path fill="#00B45E" d="M117.2,70.9c2.6,0,4.9,0.6,6.9,1.7c1-1.2,1.9-2.2,2.7-2.9c-2.2-1.7-5.9-2.7-9.6-2.7
		c-5.4,0-10.2,1.9-13.7,5.5c-3.4,3.5-5.3,8.3-5.3,13.6v22.6h3.9V86.1C102,77.1,108.2,70.9,117.2,70.9L117.2,70.9z"/>
	<path fill="#00B45E" d="M200,72.6c-3.6-3.6-8.4-5.6-13.5-5.6c-3.7,0-7.4,1.4-9.4,2.7c-4.2,2.8-7.7,5.9-13.9,13.9v5.8
		c5.3-6.9,10.3-12.3,14.1-15.3c2.5-2,6-3.2,9.2-3.2c8.3,0,15.2,7,15.2,15.2v3.5c0,4.1-1.6,7.9-4.5,10.8c-2.9,2.9-6.7,4.4-10.7,4.4
		c-6.8,0-12.7-4.7-14.3-11l-2.7,3.3c2,6.7,9.2,11.6,17.1,11.6c5,0,9.8-2,13.5-5.6c3.6-3.7,5.6-8.4,5.6-13.5v-3.5
		C205.6,81.1,203.6,76.3,200,72.6L200,72.6z"/>
</g>
</svg>
