<?xml version="1.0" encoding="utf-8"?>
<!-- Generator: Adobe Illustrator 27.9.0, SVG Export Plug-In . SVG Version: 6.00 Build 0)  -->
<svg version="1.1" id="Layer_1" xmlns="http://www.w3.org/2000/svg" xmlns:xlink="http://www.w3.org/1999/xlink" x="0px" y="0px"
	 width="256px" height="160px" viewBox="0 0 256 160" enable-background="new 0 0 256 160" xml:space="preserve">
<g>
	<path d="M191.2,124.1c0,1.4-1,2.4-2.3,2.4l0,0c-1.3,0-2.3-0.9-2.3-2.4c0-1.3,1-2.4,2.3-2.4C190.1,121.9,191.2,122.8,191.2,124.1
		L191.2,124.1z M192,124.1c0-1.9-1.4-3-3.1-3s-3.1,1.1-3.1,3c0,1.9,1.4,3,3.1,3S192,126,192,124.1 M188.5,124.4h0.3l0.8,1.3h0.8
		l-0.8-1.3c0.5,0,0.8-0.3,0.8-0.8c0-0.8-0.5-1-1.4-1h-1.3v3.2h0.7L188.5,124.4 M188.5,123.9v-0.8h0.5c0.3,0,0.6,0,0.6,0.4
		c0,0.4-0.2,0.4-0.5,0.4L188.5,123.9 M171.2,107.7l3.9,10.6h-7.8L171.2,107.7L171.2,107.7z M167,103.7l-8.9,22.5h6.2l1.4-4h10.5
		l1.3,4h6.8l-9.1-22.6L167,103.7L167,103.7z M149.2,126.1h6.3v-22.5h-6.3V126.1z M104.9,103.7l-5.3,17.9l-5.1-17.9h-6.9l7.3,22.6
		h9.2l7.3-22.6H104.9L104.9,103.7z M130.7,108.5h2.7c4,0,6.6,1.8,6.6,6.4c0,4.6-2.5,6.4-6.6,6.4h-2.7V108.5L130.7,108.5z
		 M124.4,103.7v22.6h10.4c5.5,0,7.3-0.9,9.3-3c1.3-1.4,2.3-4.6,2.3-8c0-3.2-0.8-6-2.1-7.8c-2.4-3.2-5.8-3.8-10.8-3.8L124.4,103.7
		L124.4,103.7z M64,103.6v22.6h6.4V109h5c1.6,0,2.9,0.4,3.6,1.3c1,1.1,1.4,2.8,1.4,6v9.9h6.2v-12.6c0-8.9-5.6-10.1-11.2-10.1H64
		V103.6z M114.1,103.7v22.6h6.3v-22.6H114.1z"/>
	<path fill="#77B900" d="M81.1,58.7c0,0,8.2-12.1,24.6-13.4v-4.4c-18.1,1.4-33.9,16.9-33.9,16.9s8.9,25.7,33.9,28.1v-4.6
		C87.4,78.8,81.1,58.7,81.1,58.7z M105.7,71.9v4.2C91.8,73.7,88,59.3,88,59.3s6.7-7.3,17.7-8.6v4.7l0,0c-5.8-0.7-10.3,4.7-10.3,4.7
		S97.8,69.3,105.7,71.9 M105.7,32.9V41c0.5-0.1,1.1-0.1,1.6-0.1c20.7-0.7,34,16.9,34,16.9s-15.4,18.8-31.4,18.8
		c-1.4,0-2.9-0.2-4.2-0.4v5.1c1.2,0.2,2.4,0.3,3.5,0.3c15,0,25.7-7.7,36.3-16.7c1.7,1.4,8.8,4.8,10.3,6.2
		c-9.9,8.3-33.1,15.1-46.3,15.1c-1.3,0-2.4-0.1-3.7-0.2v7h56.9V32.9H105.7L105.7,32.9z M105.7,50.7v-5.4c0.5,0,1.1-0.1,1.6-0.1
		c14.8-0.4,24.6,12.7,24.6,12.7s-10.5,14.6-21.8,14.6c-1.6,0-3.1-0.3-4.4-0.7V55.4c5.8,0.7,6.9,3.2,10.5,9l7.8-6.5
		c0,0-5.6-7.4-15.2-7.4C107.7,50.6,106.7,50.7,105.7,50.7"/>
</g>
</svg>
