<?xml version="1.0" encoding="utf-8"?>
<!-- Generator: Adobe Illustrator 27.9.0, SVG Export Plug-In . SVG Version: 6.00 Build 0)  -->
<svg version="1.1" id="Layer_1" xmlns="http://www.w3.org/2000/svg" xmlns:xlink="http://www.w3.org/1999/xlink" x="0px" y="0px"
	 width="256px" height="160px" viewBox="0 0 256 160" enable-background="new 0 0 256 160" xml:space="preserve">
<g>
	<path fill="#397657" d="M67.2,80c0-33.7,27.3-61,61-61c33.7,0,61,27.3,61,61c0,33.7-27.3,61-61,61C94.6,141,67.2,113.7,67.2,80"/>
	<path fill="#FFFFFF" d="M69,80c0-32.7,26.5-59.2,59.2-59.2c32.7,0,59.2,26.5,59.2,59.2c0,32.7-26.5,59.2-59.2,59.2
		C95.5,139.2,69,112.7,69,80"/>
	<path fill="#397657" d="M71,80c0-31.6,25.7-57.3,57.3-57.3c31.6,0,57.3,25.7,57.3,57.3c0,31.6-25.7,57.3-57.3,57.3
		C96.6,137.3,71,111.7,71,80"/>
	<path fill="#FFFFFF" d="M92.8,79.8c0-19.5,15.8-35.3,35.3-35.3s35.3,15.8,35.3,35.3c0,19.5-15.8,35.3-35.3,35.3
		S92.8,99.3,92.8,79.8 M133.7,27.8c1,0.9,1.2,2,1.2,3.3c-0.3,0.9-0.8,1.8-1.6,2.4c1,0.7,1.9,1.5,2.1,2.8c0.3,1.3-0.1,2.4-0.8,3.3
		c-1.5,1.7-3.9,1.3-6.1,1.3l-5.8,0.2l0-0.5l-0.6-13.1l0-0.3C125.9,27.1,130.3,26.1,133.7,27.8 M144.4,29.6c-1,2.9-2.4,5.8-3.1,8.9
		c-0.1,0.8,0.5,1.6,1.3,1.8c0.6,0.3,1.5,0.4,1.9,0c2-2.8,2.9-6.2,4.1-9.3c1.6,0.5,2.8,1.3,4.3,1.9c-1.6,3.4-2.6,7.5-4.8,10.3
		c-1.6,1.4-4.2,1.1-6.1,0.6c-2.2-0.8-4.6-2.2-5.3-4.7c-0.5-1.7,1.8-7.5,3.1-11L144.4,29.6"/>
	<path fill="#FFFFFF" d="M108.7,45.9l-3.3,2.2c-1.2-0.6-1.9-1.1-2.8-1.5L99,49.6c0.4,0.9,0.8,2,1.2,3L97,56.2l-0.3-0.6L91,42
		l5.2-4.5l0.4,0.3c4.1,2.5,8.3,5.5,12.5,7.8L108.7,45.9 M109.5,45.4c-1.7-4.2-3.8-9.1-5.4-13c3.9-1.6,9.6-5.5,13.2-1.9
		c0.9,1,1,2.4,1,3.6c-0.2,0.8-0.4,1.6-1,2.3c1.2,1.4,3.4,3.1,4.9,4.5l-0.2,0.1l-4.5,1c-1.6-1.3-2.5-2.2-3.9-3.1
		c-0.6,0.1-1,0.4-1.6,0.7l1.5,3.5L109.5,45.4"/>
	<path fill="#397657" d="M129.8,30.1c0.3,0.4,0.3,1.1,0.1,1.6c-0.6,0.7-1.8,0.7-2.8,0.6c0.1-0.8-0.2-1.7-0.2-2.5
		C127.8,29.8,129.2,29.4,129.8,30.1 M113.5,33.5c0.2,0.6,0.3,1.6-0.3,2l-2.5,1c-0.6-1.1-0.9-1.9-1.3-2.8
		C110.6,33.3,112.5,31.6,113.5,33.5 M130.7,35.7c0.2,0.9-0.2,1.8-1,1.9c-0.8,0.1-1.4,0-2.2,0.1c-0.1-0.9-0.2-2.1-0.1-2.8
		C128.4,35.1,130.1,34.4,130.7,35.7"/>
	<path fill="#FFFFFF" d="M164.1,40.6c0.8,1,1.4,2.3,1.8,3.6c-1,0.6-1.8,1.2-2.8,1.6c-0.2-1.5-1.1-3.1-2.6-3.9
		c-0.7-0.4-1.8-0.5-2.6-0.2c-1.3,0.5-2.4,1.6-2.8,2.8c-0.4,1.2,0,2.4,0.7,3.3c1,1.1,2.3,1.7,3.7,1.7c-0.7,1.1-1,1.8-1.6,2.6
		c-2.4-0.3-4.7-1.7-6.1-3.9c-1.2-1.9-1.3-4.8-0.2-6.8c1.1-2.2,3.2-3.6,5.6-3.9C159.9,37.4,162.5,38.5,164.1,40.6"/>
	<path fill="#397657" d="M99.7,44.7c-0.7,0.6-1.4,1.2-2.2,1.8c-0.6-1.4-1.2-2.7-1.8-4.2C97.1,43,98.4,43.9,99.7,44.7"/>
	<path fill="#FFFFFF" d="M171.6,49.3c-1.1,1.1-2.7,2.1-3.9,3.2c1.9,0.4,4.1,0.3,6.1,0.7c0.9,1.3,1.4,2.5,2.2,4.1l-7.3-0.5
		c-1.6,2.5-3.1,5.1-4.5,7.7c-0.9-1.3-1.5-2.9-2.4-4.3c0.9-1.9,2.2-3.9,3.1-5.8c-1.6,1-3.1,2.3-4.7,3.3l-2.6-3.5
		c3.5-3,7.2-5.6,10.9-8.3l0.3-0.1L171.6,49.3 M89.7,48.4c-0.7,1.4-1.5,2.3-2.1,3.6l8.5,5.6c-0.4,1.3-1.4,2.5-2.2,3.7l-8.7-5.4
		c-0.8,1-1.3,2.1-2.1,3.4c-1.1-0.8-1.9-1.3-2.9-1.9c2.2-3.6,4.2-7,6.6-10.7L89.7,48.4"/>
	<path d="M113.6,81.6c0,0.6,0,1.2-0.2,1.7c-1.3,2.7-3.4,5-3.8,8c-1.5,1-2.8,2.7-4.9,2.1c-0.1,0.6,0.1,1.4,0.3,2.1
		c-1.7-0.1-2.9,1.2-4.3,1.8c-0.8-0.2-1-1.2-1.3-1.9c1.7-0.6,2.9-2.3,4.8-2.2c0.2-0.6-0.1-1.2-0.2-1.8c-2.4-1.1-6.2,5.3-6.5-0.2
		c2.4-0.1,3.9-2.4,6.3-2.6l0.1-1.8c-2.7-0.3-4.4,2.5-7.1,2.2l-0.6-2.4c3.1,0.2,5-2.6,8-2.8c0.4-0.5,0.4-1.3,0.5-2
		c-3.2-0.4-5.5,3.2-8.9,2.1c0,0-0.1-1.5-0.2-2.3L113.6,81.6"/>
	<path d="M117.4,81.6c0.1,1.3-0.2,2.6-1.5,4c-1.8,2.1-3.6,4.8-2.3,7.6c1.4,3.1,5.7,5.6,3.8,9.4c-1,2.5-3.4,4.3-3.3,7.2
		c-0.6-0.3-1.3-0.5-1.9-1c0-3.7,5.3-6,2.8-9.9c-0.2,0.8-0.3,1.8-0.4,2.7c-0.9,2.3-2.7,4.1-3.4,6.4c-1.2-0.4-2.4-1.4-3.3-2.4l1.3-0.8
		c-0.1-0.5-0.5-0.9-0.9-1.3c-0.9-0.1-1.4,0.4-2.2,0.7c-0.6-0.5-1.2-1-1.7-1.7c0.4-1.3,3.9-0.2,2.2-2.3c-1.2-0.7-2.4,0.3-3.4,0.8
		l-1.4-1.8c1.2-0.7,2.4-1.8,3.9-1.5c0.4,0.7,0.4,1.7,1.1,2c2.6,0,4.4-2,6.3-3.5c-1.4-2-2.5-4.8-1.3-7.3c1-2.5,3.5-4.5,3.6-7.3
		L117.4,81.6"/>
	<path d="M121,81.6c0.1,1.1-0.1,2.3-0.9,3.5c-1.6,2.2-3.7,4.5-2.8,7.4c0.9,2.9,4.5,4.7,4.3,8c0,4-4.7,6.5-3.3,10.9l-2.3-0.7
		c-0.9-4,3.3-6,3.3-9.7c0.6-4.2-4.8-5.8-4.5-9.9c0-3.1,2.7-5.1,3.9-7.7c0.2-0.6,0.3-1.2,0.3-1.8H121"/>
	<path d="M133.8,81.6c-0.2,1,0,2.1,0.5,3c1.6,2.6,4.4,5.3,2.7,8.6c-1.9,2.7-5,5.4-3.7,8.9c1.4,3.1,4.2,6.1,2.7,9.9l-2.3,0.5
		c1.8-3.7-0.9-7.5-2.5-10.7c-2-4.7,4.2-6.9,4.3-11.2c0-2.8-3-4.3-3.6-6.8c-1.3-1.1-2.6,0.4-4.1,0.1c-1.1,0.2-2.8-1.5-3.5,0.4
		c-0.8,2.8-4.4,4.9-2.8,8.2c1.5,3,5.2,5.1,3.9,8.9c-1.1,3.6-4.7,7-2.5,11.1c-0.9-0.3-2.6,0.3-2.6-1.2c-1.4-5,4.6-7.9,2.8-12.9
		c-0.9-3.1-4.8-4.7-3.9-8.4c0.6-3,4-5.1,3.6-8.4L133.8,81.6"/>
	<path d="M137.3,81.6c0,0.8,0.1,1.7,0.7,2.5c1.7,2.8,4.7,5.8,3,9.5c-1.9,2.9-5.3,5.9-3.4,9.7c1.4,2.3,3.5,4.6,2.9,7.4l-2.2,0.7
		c1.5-5.2-5.8-8.3-2.8-13.5c1.9-2.8,5.3-5.4,3.3-9.2c-1.1-2.3-3.5-3.7-3.4-6.5l0.1-0.5L137.3,81.6"/>
	<path d="M141,81.6c0,0.7,0.2,1.5,0.5,2.1c1.6,2.9,4.5,5.7,3.4,9.3c-0.3,1.1-1.2,2-1.4,3.1c1.9,1.6,3.7,3.3,6.2,3.4
		c0.9-0.6,0.4-3.1,2.2-1.9l2.7,1.3c-0.2,0.7-0.8,1.4-1.3,1.9c-1-0.5-2-1.1-3.3-1c-0.4,0.4-0.7,0.8-0.7,1.4c0.9,0.1,1.7,0.5,2.5,1
		c-0.3,0.7-1,1.2-1.6,1.8l-2.1-0.7c-0.3,0.5-1.1,1-0.8,1.6c0.5,0.2,1,0.5,1.3,0.8c-0.9,1-2.1,1.6-3.2,2.3c-1-3.2-4.1-5.4-3.9-9
		l-0.1-0.1c-0.7,0.8-0.5,2.2-0.4,3.3c0.9,2.3,3,4,3.3,6.5c-0.4,0.6-1.2,0.8-1.9,1c0.1-4.5-6.8-7.9-2.4-12.5c1.5-2.2,3.9-4.4,3-7.4
		c-0.9-3-4.1-4.8-4-8.1L141,81.6"/>
	<path d="M160.9,81.6c0,0.8,0.1,1.6-0.2,2.4c-3.4,1-5.6-2.6-8.9-2.1l0.4,1.9c3.1,0.1,5,3,8.1,2.9c-0.4,0.9,0.2,3.3-1.8,2.3
		c-2.1-0.5-3.5-2.3-5.8-2.3c-0.3,0.5-0.1,1.2-0.1,1.8c2.4,0.4,4.1,2.4,6.5,2.8c-0.2,0.8-0.4,1.7-1.1,2.2c-1.9-0.5-3.4-2.2-5.5-2.2
		l-0.4,1.7c2,0,3.2,1.8,5,2.3c0,0.7-0.6,1.4-1,2c-1.6-0.5-2.8-1.8-4.5-1.7c0-0.7,0.4-1.4,0.2-2.2c-2,0.6-3.3-1.3-4.8-2.4
		c0-3.7-3.9-6.1-4.1-9.5L160.9,81.6"/>
	<path d="M95.5,81.6c0-0.3,0-0.6,0-0.6c3.1,1.2,5.8-1,8.4-2.2c0.7-0.2,1.7,0.1,2-0.6c0-0.6,1-1.2,0.1-1.6c-3.8-0.5-6.4,4.1-10.3,2
		l-0.3-0.6c0.8-11.2,7.1-22,17.6-27.4c9.4-5.4,23.8-4.9,32.6,1.3c4.7,2.9,9.2,7.6,11.6,12.4c2.3,4.2,3.4,9,3.7,14
		c-4.1,3.1-6.8-2.9-10.9-1.6c0.2,0.6,0.3,1.3,0.8,1.9c3.7,0,6.2,3.8,10,2.3l0,0.6h-18.2c0-0.8,0.1-1.5,0.4-2.2
		c1.3-2.9,0.9-6.7-0.5-9.5c-0.4-0.7-1.2-1.3-1.9-1.7c1,2.2,2.3,4.7,1.6,7.4c-0.1,2-1.3,4-1.3,6h-1.9l0-0.3c0.7-3.5,2.9-7.2,1.1-10.9
		c-0.5-1.5-1.6-3.2-3.1-3.8c2.3,2.6,3.1,6.8,1.9,10.3c-0.7,1.4-1.5,3-1.6,4.6h-1.9c0.8-4.1,3.9-7.9,1.7-12.3c-0.6-1.3-1.7-2.6-3-3.3
		l-0.1,0.1c2.5,2.5,3.3,6.5,1.9,9.7c-0.6,1.9-2,3.8-2.3,5.8h-11.1c0-0.3-0.1-0.6-0.2-0.9c-1.3-3.6-3.8-7.1-2.3-11.3
		c0.4-1.2,1.3-2.2,2-3.3c-2.5,1.3-3.7,4.1-3.6,6.9c-0.1,3.1,2.2,5.7,2.5,8.5h-1.9c-0.1-2.9-2.8-5.2-2.3-8.4c0.1-2.4,1-4.5,2.5-6.3
		c-2.2,0.9-3,3.3-3.6,5.4c-1,3.3,1.4,6.3,1.7,9.3h-2c0-0.7-0.1-1.3-0.3-2c-1.3-3.4-1.8-8.1,0.7-11.2c-1.4,0.4-2.2,2.1-2.7,3.4
		c-1.5,3.4,0.4,6.5,0.5,9.7L95.5,81.6"/>
	<path fill="#FFFFFF" d="M129.9,52.8l4,0.2l-0.1,0.4l-3,2.8c0.5,1.3,1,2.5,1.6,3.8c2.3-1.3,4.4-2.9,7.1-3.1c-0.2,1.4-1.3,3-1.2,4.4
		c1.7-0.5,3.2-1.5,5.1-1.4c-1.1,2.1-2.8,4.2-2.9,6.8c-2.5-0.9-5.1-2.1-7.9-2.5c-6-1-11.7,0.3-16.7,2.7c-0.4-2.5-1.6-4.7-3.1-6.8
		c0.9-0.3,2,0.2,2.9,0.4c0.8,0.2,1.4,0.7,2.2,0.9c0.1-1.5-0.7-3-1.3-4.3c0.4-0.3,1.1-0.1,1.6,0.1c2,0.7,3.7,1.9,5.5,3
		c0.9-1.1,1.3-2.6,1.6-4l-3-2.8v-0.3l4-0.2c0.7-1.3,1.1-2.6,1.8-3.9C128.9,50.2,129.2,51.6,129.9,52.8"/>
	<path d="M131.3,60.9l-0.4,0.4c-1.9-0.2-3.8,0-5.6,0.1c-0.2-0.2-0.6-0.5-0.2-0.7l2.8-2.2C129.1,59.2,130.4,60,131.3,60.9"/>
	<path fill="#FFFFFF" d="M81.7,62c-1.5,1.2-2.6,2.9-2.3,4.9c0.2,0.3,0.3,0.7,0.7,0.8c1.2,0,1.7-1.3,2.2-2.2c0.7-1.5,2-3.1,3.7-3.3
		c1.5-0.1,2.8,0.3,3.8,1.5c1.5,1.8,1.2,4.7,0.5,6.8c-0.7,1.6-1.7,3.1-3.2,4.2l-2.7-1.6c1.5-1,3-2.7,3.2-4.5c0-0.7-0.1-1.6-1-1.6
		c-1.7,0.5-1.9,2.6-3,3.7c-0.9,0.9-2,1.6-3.4,1.4c-1.3-0.1-2.4-0.9-3.2-1.9c-1.5-2.2-0.7-5.5,0.1-7.2c0.5-1,1.2-1.9,2.1-2.7
		C80.1,60.7,80.9,61.3,81.7,62 M178.9,63.9c1.3,2.1,1.8,4.8,1.1,7.4l-2.8-0.1c0.4-1.7,0.6-3.7-0.5-5.1c-0.3-0.4-1-0.7-1.4-0.4
		c-1.5,1.7,0.1,4.1-0.8,6c-0.4,0.9-1.1,1.9-2.1,2.3c-1.6,0.6-3.5,0.3-4.7-0.9c-2.3-2.4-3.4-6.2-1.9-9.4h2.9c-0.5,1.2-0.8,3-0.4,4.5
		c0.2,0.6,0.5,1.4,1.3,1.6c2.4,0.1,0.8-3.3,1.3-4.9c0.2-1.2,0.9-2.4,2.1-3C175.2,60.7,177.8,62,178.9,63.9 M105.9,68.6
		c2.4-0.9,5.7-2.5,8.3-0.8c-0.5,0.8-1.6,1.2-2.4,1.9c-1.3,1.2-2.8,2.8-3.7,4.3c-3.1-0.6-5.6,1.2-8.2,2.2c-1,0.2-2.3,0.3-3.1-0.4
		c2.5-4,5.9-7.8,5.1-13.1c0.3-0.5,0.7-0.1,1,0.1C104.7,64.3,105.7,66.4,105.9,68.6 M154.8,63.3c-1,5.1,2.5,8.6,4.8,12.5
		c-2.7,1.8-5.2-1-7.7-1.6c-1.1-0.2-2.4-0.3-3.5-0.1c-1.5-2.4-3.6-4.6-6.1-6c0.1-0.8,1.3-0.9,2.1-1c2.2-0.2,4.1,0.7,6,1.6
		c0.3-0.8,0.5-1.7,0.7-2.6c0.6-1.5,1.8-3,3.3-3.6C154.7,62.6,154.9,63,154.8,63.3 M134.1,67.9c0.1,0.4,0.5,0.8,0.2,1.3
		c-1.5-0.4-3.1-0.2-4.5,0.4c-1.3,0.9-1.1,2.9-0.7,4.2l0.4,0.3c0.6-0.1,0.6-0.9,1.2-1.1c0.9,0.2,2.2,0.5,3.1,0c0.8,0,0.7,1.1,0.8,1.6
		c-0.5,2.9-1.8,6-4.7,7.4c-1.2,0.6-2.8,0.2-3.9-0.2c-2.9-1.7-4.5-5.1-4.2-8.2c0.2-0.5,0.6-0.8,1.1-0.5c1.2,0.8,2.4-0.6,3.5,0.4
		c1.3-0.6,0.5-2.2,0.5-3.3c-1-1.3-2.8-1.1-4.4-1c-0.7-0.4,0-1.1,0.2-1.6c1.7-2.4,4.9-2.4,7.7-2.1C131.9,65.8,133.5,66.4,134.1,67.9"
		/>
	<path fill="#FFFFFF" d="M125.5,71.4v0.3c-0.8-0.1-2.2-0.9-3,0.1c-0.5,0.2-0.6-0.3-0.5-0.7c-0.1-0.3,0.1-0.6,0.4-0.7c0,0,0,0,0.1,0
		C123.6,70.1,124.9,70.5,125.5,71.4 M134.4,71c0,0.3,0,0.6-0.3,0.8c-0.9-0.4-2.3-0.9-3.2-0.1c-0.5-1.2,1-0.9,1.5-1.3
		C133.1,70.4,134,70.3,134.4,71"/>
	<path d="M129.6,75.8c-0.4,0.9-1.9,0.3-2.7,0.5c-0.3-0.1-0.1-0.4-0.1-0.6C127.6,75.1,129,75.1,129.6,75.8 M130.8,77.8
		c-0.6,0.9-1.5,2-2.7,1.9c-1.3,0.1-1.6-1-2.6-1.6l-0.1-0.4C127.2,78,129.2,77.6,130.8,77.8"/>
	<path fill="#FFFFFF" d="M84.4,89.4c1.5,0,2.9,0,4.5,0l-3.5,2.9c0.3,1.2,0.6,2.6,1,4.2l-3.4-2.4c-1.4,0.7-2.3,1.5-3.8,2.2l1.2-4.1
		c-1.1-0.9-2.4-1.8-3.5-2.7c1.6,0,2.9,0,4.4,0c0.7-1.3,1-2.8,1.6-4.1L84.4,89.4 M102.1,109c0.3,0.7,0.7,1.3,0.9,2.4
		c-0.8,0.5-1.8,0.9-2.7,1.4c-0.2-1.6-1.7-3.2-3.3-3.6c-1.3-0.3-2.8,0.3-3.8,1.5c-0.8,1-1.1,2.4-0.8,3.6c0.6,1.7,2.4,3,4.2,3l0.5,0
		c-0.4,0.9-0.8,1.8-1.3,2.7c-3-0.1-6-1.9-7.1-4.8c-1-2.4-0.5-5.4,1-7.4c1.8-2.3,4.8-3,7.6-2.4C99.2,105.8,100.9,107.3,102.1,109
		 M159.9,107.5l0.2,0.2l-4.5,4.2l1.5,1.8c1.3-1,2.6-2,4-3.3c0.7,0.6,1.3,1.3,1.9,2c-1.3,1.3-2.7,2.1-3.9,3.4
		c0.5,0.6,0.9,1.3,1.6,2.1l4.8-4l2.1,2.1c-2.7,2.6-5.7,5.3-8.5,7.3l-8.4-10.9c2.7-2.2,4.9-4.3,7.3-6.6
		C158.7,106.2,159.2,106.8,159.9,107.5 M112.6,116.6c1.5,1.9,1.5,4.9,0.6,7.1c-1.1,2.2-3.1,3.7-5.3,4.2c-2.7,0.4-5.2-0.4-7.1-2.3
		c-1.7-1.9-2.7-4.6-1.8-7.2c0.8-2.9,3.5-4.9,6.4-5.3C108.3,112.9,111,114.3,112.6,116.6"/>
	<path fill="#397657" d="M109.4,118.4c0.8,2-0.1,3.9-1.5,5.3c-0.9,0.7-2,1.1-3.1,0.7c-0.7-0.3-1.6-1-1.8-1.8c-0.5-2,0.4-3.8,1.7-5.2
		c0.8-0.7,2.1-1.1,3.1-0.6C108.5,117,109.2,117.7,109.4,118.4"/>
	<path fill="#FFFFFF" d="M139.1,121.5c-2.1,0.3-4.1,0.5-6.1,0.9c0.2,1,0.1,1.6,0.3,2.4c1.9,0,3.5-0.4,5.2-0.6l0.5,3.2
		c-1.8,0.3-3.5,0.6-5.3,0.8c0,1.4,0.2,3.2,0.2,4.8c-1.5,0.2-3,0.4-4.6,0.3l-0.9-13.6l0-0.3c3.3-0.3,6.7-0.7,10-1.3
		C138.5,119.1,138.8,120.3,139.1,121.5 M150.4,115.4l0.1,0.2l-5.4,2.7l0.9,2.1c1.7-0.6,3.1-1.2,4.7-2.1c0.5,0.8,0.8,1.6,1.3,2.5
		c-1.5,0.8-3,1.4-4.7,2.1c0.3,0.7,0.5,1.3,1,2.4l5.7-2.5l1.4,2.6c-3.3,1.7-7,3.4-10.2,4.6l-5-12.8c3.2-1.4,5.9-2.7,8.9-4.3
		C149.6,113.9,150,114.7,150.4,115.4 M126.4,123.1c-2.1-0.3-4.1-0.7-6-1c-0.1,1-0.4,1.6-0.5,2.3c1.8,0.5,3.4,0.7,5.2,1l-0.5,3.2
		c-1.8-0.2-3.6-0.5-5.3-0.9c-0.4,1.4-0.7,3.1-1.2,4.6c-1.5-0.2-3-0.6-4.4-1.1l3.3-13.2l0.1-0.3c3.3,0.7,6.7,1.3,9.9,1.8
		C126.6,120.6,126.5,121.8,126.4,123.1 M174.6,89.5c1.5,0,2.8,0,4.5,0l-3.4,2.9c0.3,1.2,0.6,2.6,1,4.2l-3.4-2.4
		c-1.4,0.7-2.3,1.5-3.8,2.2l1.2-4.1c-1.1-0.9-2.4-1.8-3.5-2.7c1.6,0,2.9,0,4.4,0c0.6-1.4,1-2.7,1.6-4.1L174.6,89.5"/>
	<path fill="none" d="M190.4,80.5c0,35-27.9,63.3-62.4,63.3s-62.4-28.4-62.4-63.3c0-35,27.9-63.3,62.4-63.3S190.4,45.5,190.4,80.5z"
		/>
	<path d="M168.5,131.3c1.9,0,3.6,1.5,3.6,3.6c0,2.1-1.7,3.6-3.6,3.6c-2,0-3.6-1.5-3.6-3.6C164.9,132.8,166.6,131.3,168.5,131.3
		L168.5,131.3z M168.5,131.9c-1.7,0-2.9,1.3-2.9,3c0,1.7,1.3,3,2.9,3c1.6,0,2.9-1.3,2.9-3C171.4,133.2,170.2,131.9,168.5,131.9z
		 M167.8,136.9h-0.6v-4.1h1.6c1,0,1.5,0.4,1.5,1.2c0,0.7-0.5,1.1-1.1,1.1l1.2,1.8h-0.7l-1.1-1.8h-0.7L167.8,136.9L167.8,136.9z
		 M167.8,134.6h0.7c0.8,0,1-0.2,1-0.7c0-0.4-0.2-0.6-0.9-0.6h-0.9V134.6z"/>
</g>
</svg>
