<?xml version="1.0" encoding="utf-8"?>
<!-- Generator: Adobe Illustrator 27.9.0, SVG Export Plug-In . SVG Version: 6.00 Build 0)  -->
<svg version="1.1" id="Layer_1" xmlns="http://www.w3.org/2000/svg" xmlns:xlink="http://www.w3.org/1999/xlink" x="0px" y="0px"
	 width="256px" height="160px" viewBox="0 0 256 160" enable-background="new 0 0 256 160" xml:space="preserve">
<g>
	<path fill-rule="evenodd" clip-rule="evenodd" fill="#164C8E" d="M137.5,37.8c0.7,0,1.3-0.5,1.3-1.2c0-0.7-0.6-1.2-1.3-1.2
		c-0.6,0-1.2,0.5-1.2,1.2C136.3,37.3,136.9,37.8,137.5,37.8z M120.9,35.7c0.6,0,1.1-0.5,1.1-1.1c0-0.6-0.4-1.1-1.1-1.1
		s-1.1,0.4-1.1,1.1C119.9,35.1,120.3,35.7,120.9,35.7z M108.4,61.1l-0.5-0.5c1.5-1.4,2.9-3.5,3.2-4.7c0.1-1.2,1.9-0.9,1.6,0.3
		C112.3,57.8,110.4,59.7,108.4,61.1z M97.9,36.1c-2.6,1.1-2.9,3.8-1.1,5.4c2.1,1.9,5.9,0.3,5.5-2.8c2.9,0.1,4.8-2.9,4.4-5
		c1.3-1.1,1.4-3.5-0.1-4.4c-1.7-1.1-3.2-0.7-4.3,1.3C99.5,30.4,96.9,32.4,97.9,36.1l-1.2-0.5c-1.6-3.5,1.2-7.1,4.7-6.2
		c0.8-1.7,3.4-3.5,6.3-1.8c2.3,1.4,2.8,5,0.4,6.7c1.1,3.2-1.2,6-4.7,5.7c-0.4,4.3-4.4,4.8-7.1,2.8c-1.5-1.2-2-2.8-2.3-4
		c-0.4-1.3-0.4-2.4-1.6-3.7c-0.9-0.9-2.7-0.9-2.7-0.9c0-3.1-2.8-5.9-6.4-4.6c-1.3-1.1-2.9-1.2-4,0.1c-0.6,0.8-1.1,2.8,1.1,3.8
		c-0.1,2.8,2,4.7,5.2,4.4c0.1,1.5,1.7,2.9,3.2,3.1l-0.1,0.8c-1.6-0.1-2.4,0.4-3.5,1.6c-3.7-0.1-6.3,1.6-6.2,4.2
		c-2.6,0.4-3.1,3.2-1.6,4.7c1.5,1.5,3.6,0.8,4.4-0.8c2.7,0.5,5-1.4,5.1-3.5c2.4,0,3.5-1.1,4-3.2l0.8,0.1c0.3,2.4-0.8,4.7-3.8,4.4
		c-0.1,2.9-2.8,4.4-5.5,3.5c-1.2,2.3-4,3.2-6.4,0.9c-2.3-2.1-1.5-5.9,1.6-6.8c0-2.8,2.1-5.5,6.2-4.4c0,0,0.5-1.3,1.8-1.4
		c-0.8-0.4-1.5-0.8-1.6-1.7c-3.1,0.7-5.7-2.1-5-5c-2.8-1.5-2.8-4.2-1.5-5.9c1.5-1.7,3.9-2,5.9-0.3c3.7-2,7.8,0.5,7.5,4.7
		c2.6-0.1,4.2,2,3.8,4.3c0.4-1.1,0.9-1.5,1.9-1.6L97.9,36.1L97.9,36.1z"/>
	<path fill-rule="evenodd" clip-rule="evenodd" fill="#164C8E" d="M104.1,31.1l0.6,0.4c-1.2,2.6-3.2,5.2-5.1,6.7L99,37.6
		C100.3,35.5,102.9,32.1,104.1,31.1L104.1,31.1z M86.4,44.8l0.4,0.7c-1.5,1.5-4.2,3.5-5.8,4.3l-0.5-0.7
		C81.8,47.6,84.6,45.6,86.4,44.8z M90,37.4l-0.7,0.8c-2-1.3-5.9-4.7-6.7-6l0.6-0.6C85,32.6,88.7,35.9,90,37.4z M86.4,70.3
		c0.3,1.1,0,2.4,1.1,3.6c0.4,0.4,2.3,3,3.8,4.3c-2,0.8-5.9,2.4-8.6,2.8c-0.6,0.1-1.2,0.4-1.7,0.8c-0.4,0.6-0.7,1.6-0.8,2.8
		C80,85.4,80,86.4,80,87.3c0,0.8,0.4,3.6,1.4,5.4c0.9,1.8,1.9,2.7,3,3.2c0.3-0.1,0.8-0.1,1.6-0.1c2-0.1,3.7,1.1,4.4,2
		c0.3,0.4,0.8,0.5,1.6,0.5c1.7,0,3.6-0.6,5.4-1.3c0.4-0.3,1.5-1.1,2.5-1.8c1.1-0.8,7-5.9,9.5-7.1c1.4,0.7,3.6,1.6,5.9,1.6
		c0.1,0,0.5,0.1,1.1-0.1c0.7-0.1,1.6-0.4,2.8-0.7c2-0.4,4.4-0.8,5.2-0.8c1.9,0.1,7.5,0.1,8.9,0.1c1.3,0,3.4-0.1,4.2-0.1
		c1.2-0.4,3.9-1.1,6.4-2.3c2.5-1.1,7.8-4.8,8.6-5.7c0.4-0.4,0.8-0.8,1.1-1.1c0.1-0.1,0.1-0.3,0.1-0.4c0-0.1-0.1-3.7-0.1-3.7
		s1.3-1.4,1.8-1.9v-0.1c-0.3-0.7-0.4-2.9-0.4-5.2l-1.2-0.6c-0.1,2.8-1.1,5.2-2,6.7c-1.9,0.3-5.6,1.4-6.9,2.9l0.8,0.1
		c1.2-0.7,2.5-1.1,4-1.1c1.3,0,1.9,0.4,1.9,0.7c0,0.3-0.3,0.8-0.4,1.1c-0.1,0.1-0.1,0.5-0.4,0.7c-1.8,2-3.8,3.6-6.3,5
		c-1.6,0.9-3.2,1.6-5.7,2.3c-0.8,0.1-1.8,0.4-2.4,0.7c-0.9,0-5.8-0.1-8.6-0.1c-2.8,0-8.7,0.4-10.5,0.8c-0.8,0.3-1.1,0.6-2,0.6
		c-1.8,0-4.2-0.9-5.7-1.6c-0.3,0-0.8,0.3-1.3,0.5c-1.1,0.5-3.4,3.8-4.7,2.8c-0.7,1.5-3.7,2.8-4.7,4.2c0.1-0.7,1.3-5.7,1.4-6.7
		c0-0.1,0.1-0.4-0.1-0.5c-1.1-1.8-4.2-2.9-5.9-3.2c-0.4-0.1-0.7-0.1-1.1-0.3l-2.8-0.8l-2.5,0.8l2.9,0.5l-3.7,2.5
		c0.7-0.3,4.7-1.4,4.9-1.5c0.4-0.1,0.8-0.1,1.2,0c0.6,0.1,2,0.5,3,0.8c0.5,0.1,1.4,1.1,1.6,1.6c0.1,0.3,0.1,0.7,0.1,1.7
		c0,0.6-0.1,1.6-0.3,2.3c-0.4,1.8-1.3,3.2-1.6,3.7c-0.4,0.7-0.8,0.9-1.3,1.1c-0.8,0.4-1.8,0.6-2.8,0.7c-0.8,0-1.3-0.1-1.6-0.5
		c-0.9-1.4-3.5-2.7-5.9-2.2c-1.6-0.9-3.1-4-3.1-6.4c0-1.5,0.7-3.8,1.1-4.9c2.5-0.4,7.6-2.3,10-3.4c0.5,0,2-0.5,3.4-0.5
		c3.2,0,6.6,2.8,8.5,4.8c0.4-0.5,0.9-1.4,2.7-1.4c2.3,0,3.7,2.2,4.3,4.3l1.2-0.8c-0.1-1.2-0.8-2.6-1.8-3.6c-0.8-0.8-2.3-1.5-3.5-1.5
		c-0.8,0-1.5,0.1-2,0.1c-1.6,0-2.3-0.8-3.6-1.6c-1.3-0.8-3.8-2.3-5.6-2.3c-1.1,0-1.6,0.4-2.6,0.4c-1.4,0-1.9-0.5-2.5-1.4
		c-0.4-0.4-1.7-1.6-2-2c-0.3-0.4-0.6-1.5-0.8-2L86.4,70.3L86.4,70.3z"/>
	<path fill-rule="evenodd" clip-rule="evenodd" fill="#164C8E" d="M88.2,71.7c0.4,0.4,0.8,0.8,1.3,1.3c0.5,0.4,1.1,0.7,1.6,1.1
		c0.8,0.4,1.8,0.9,2.7,1.3c0.8,0.1,1.9,0.3,2.8,0.3c1.4,0,3-0.3,4.4,0.4c0.9,0.4,0.9,1.4,1.7,1.6c1.1,0.4,4.2,0.5,5.9,0.5
		c3.5,0,7.1-0.4,9.4-0.9l-1.1-1.2c-1.6,0.3-6,0.8-8.1,0.8c-2.8,0-5.6-0.5-5.6-1.6c0-0.8,0.8-2,2.6-2c1.8,0,4.6,1.1,5.1,1.3
		c0.5,0.1,0.7,0.1,1.1-0.1l1.1-0.5c-1.4-0.7-6.3-2.3-8-2.3c-0.8,0-1.3,0.1-1.8,0.8c-0.6,0.8-2.4,1.6-5.2,1.6c-1.6,0-3.8-0.4-4.2-0.5
		c-0.8-0.4-2.5-1.3-3.5-2c-1.4-0.9-2.6-2-3.4-3.4c-0.3-0.4-0.4-0.8-0.4-1.2c0-0.4,0.1-0.6,0.1-0.8c0.3,0.4,0.5,0.6,0.8,0.8
		c1.5,1.5,3.6,2.5,5.9,2.9c0.7,0.1,1.2,0.3,1.9,0.3c0.9,0,1.8-0.5,2.4-1.1l-0.9-1.1c-0.3,0.1-0.8,0.1-1.2,0.1c-3.2,0-7.4-2-8.3-4.6
		c-0.1-0.3-0.3-0.4-0.1-0.6c0.1-0.3,0.1-0.7,0.3-1.1c0.1,0.1,0.6,0.5,1.1,0.8c1.2,0.8,3.5,1.8,4,2.1c1.1-0.4,2-0.8,2.7-1.1
		c0.7-0.4,1.6-0.7,2.7-0.7c2.4,0,5.2,1.4,7.8,2.7l1.7-0.7c-2.3-1.6-7.2-3.9-10-3.9c-1.6,0-3.2,1.2-4.3,1.2c-1.3,0-5.1-1.9-5.1-3.5
		c0-1.2,2.4-1.9,6.4-2.3c-0.7,0.9-1.4,2-2,3.1l1.1,0.6c6.2-9,12.8-14.9,18.1-18.5c2-1.3,2.4-2,3.1-3.5c1.7-3.5,3.4-6.1,6.1-6.1
		c1.3,0,2.3,0.7,3.1,1.6l2,0.6l-2,1.4l2,0.8c-2.7,0.8-6.4,3.5-7.9,7.3c-2.8,0.1-4.2,2.5-5.2,4.4c-0.7,1.4-1.6,1.9-3.2,2.8l-11.9,8.4
		l1.6,0.3l10.9-7.3c2.1-1.5,3.2-2.6,3.7-3.5c0.9-2,2-3.6,4.2-3.6c1.1,0,2.1,0.5,3.1,1.4l1.9,0.6l-2,1.3l1.7,1.1
		c-5,1.6-8.1,5.2-9.9,12.1l1.3,0.3c0.7-2.3,1.4-4.3,2.5-6.2c2.9,0,5.9-0.1,8.8-0.1c7.7,0,14,0.4,17.5,1.3l-1.2-2
		c-3.7-0.7-9-0.9-16.3-0.9c-2.5,0-4.9,0.1-7.4,0.1c1.6-1.6,3.9-3.1,7.4-4.2l-2.5-1.4l2.8-1.6l-3.8-1.4c-0.6-0.6-1.5-1.2-2.5-1.5
		c1.2-3.7,5.4-5.9,9.3-7.3l-2.8-1.1l2.8-1.6l-4.3-1.4c-1.1-1.3-2.1-1.9-3.9-1.9c-4,0-5.6,3.5-7.2,6.4c-0.8,1.6-1.3,2.3-2.8,3.2
		c-3,2-7,5.1-10.7,9c-1.9-1.4-5.9-5.5-7-7.8c-0.4,0.5-0.8,1.7-0.8,1.7c0.4,0.4,5.1,5.1,6.8,7.1c-0.1,0.1-0.3,0.3-0.4,0.4
		c-1.9,0.4-6.7,0.8-8.3,0.6l-0.8,1.6c1.2-0.1,5.9-0.7,8-0.8c-0.6,0.7-1.2,1.5-1.8,2.3c-6.2,0.7-10.2,2-10.2,4.2
		c0,0.4,0.1,0.8,0.1,1.2c0,0.9-0.4,1.3-1.1,1.7C84,61.8,84,62,84.2,62.3c0.1,0.3,1.1,1.6,1.1,1.9c0,0.5-0.4,0.9-0.8,1.4
		c-0.4,0.4-0.4,0.4-0.1,0.8l1.8,3.8L88.2,71.7L88.2,71.7z M164.4,50.6c-0.4,0.4-0.7,0.8-1.1,1.3l-0.9-1.4c3.2-4.4,12.1-6.4,17.2-6.9
		v-2.3c-0.7,0.1-1.4,0.4-2,0.6c-0.8,0.1-1.7,0.4-2.4,0.4c-0.8,0-1.4-0.3-1.6-0.7c-0.7-0.9,0-2.4,2.3-3.8l-1.8-1.6
		c-1.4,1.8-2.7,3.8-4,4.9c-1.3,1.1-2.6,1.6-3.6,0.8c-0.6-0.4-0.8-0.6-0.8-1.7c0.1-1.6,1.1-4.2,1.9-5.8l-2-0.3
		c-0.4,2.5-1.4,4.6-2.5,6.3c-1.3,2.1-3,3.7-4.8,4.9l-1.2-1.1c1.5-0.8,3.2-2.3,4.4-4.2c1.5-2.3,2.7-5,2.7-7.4l6,0.5
		c-0.8,1.1-2.3,3.6-2.8,5.4c-0.3,0.9-0.3,1.7,0.1,2c0.6,0.4,1.7-0.4,2.8-1.5c1.6-1.7,3.1-4.2,3.7-5.1l4.4,3.6
		c-2,1.1-3.9,2.3-3.5,2.9s1.6,0.4,3,0c1.1-0.4,2.3-0.8,3.2-1.5v5.9c-2.1,0-5.8,0.4-9.2,1.5c0.8,1.1,3.2,1.6,4.7,1.8l-0.7,4.8
		C172,51.5,169.1,50.7,164.4,50.6l1.6-1.4c3.4,0.1,6.8,1.1,8.7,2l0.3-1.8c-1.7-0.3-3.9-1.2-4.8-2.3c-1.5,0.5-2.9,1.2-4.2,2
		L164.4,50.6L164.4,50.6z"/>
	<path fill-rule="evenodd" clip-rule="evenodd" fill="#164C8E" d="M146.3,65.9l1.4-3.1c-1.7-2-3.2-4-4.6-6.2l-1.2-2
		c-2.8-5.4-1.8-7.9-3.2-10.3c-1.3-1.9-7.3-0.7-8.3-0.5l1.7-2.8l-3.5,0.3l2.9-3.5c0.4-0.5,0.4-0.8,0.8-2c0.5-1.9,2-5,6.7-5
		c5.1,0,6.7,4.2,8.9,5.9c3,2.5,6,5,8.8,7.8l1.2,1.1c1.6,1.6,3.1,3.3,4.4,5.1l0.9,1.4c6.2,9,13.8,26.1,17.2,34
		c0.3,0.8,0.5,1.6,0.8,2.1c-2.3-1.3-4.8-2.8-7.5-4.7l-1.5-1.1l-2.8-2l-1.6-1.3c-1-0.7-1.9-1.4-2.8-2.3l3.1,17.9
		c0.1,1.1,1.1,0.9,1.8,0c0.7-0.9,1.1-1.2,0.7-2.4L168,79.1l1.6,1.3l2.8,11.1c0.3,1.1,0.7,1.4,1.9,1.4c1.2,0.1,1.4-0.4,1.2-1.1
		l-3-9.3l1.5,1.1l2.8,8.3c0.8,2.1,0,2.4-1.3,2.4c-1.2,0-2.4-0.4-3.1,0.1c-0.7,0.5-1.6,1.7-2.7,2.8c-0.8,0.9-2.3,0.8-2.5-1.1
		l-3.5-20.6c-2.1-2-4.3-4-6.2-6.2c-0.8-0.4-1.7-0.8-2.6-1.1l-1.2-0.6c-0.5-0.3-0.8-0.4-0.9-0.4c-0.9,1.1-1.9,2.4-2.9,3.2
		c-0.5,0.5-0.9,0.8-1.7,0.8c-0.3,0-0.6,0-0.8-0.1c-0.4-0.1-0.6-0.5-0.9-1.1c-0.3-0.4-0.6-0.8-0.9-1.4c-0.7-1.1-1.4-2.6-2-3.7
		c-0.7-1.3-1.4-2.3-1.5-2.4c-0.1-0.3-0.4-0.5-0.4-0.5c-0.4,0.5-0.7,1.6-0.7,2.3l-1.2-0.4c0.1-0.8,0.4-2,0.7-2.5
		c0-0.4-0.5-1.1-0.9-1.1c-0.6,0-1.2,0.6-1.5,1.8l-1.3,0.6c0.1-2,0.8-4.2,2.8-4.2c1.6,0,2.6,1.2,3.2,2.3
		C143.3,61.9,145.9,65.2,146.3,65.9l0.9,1.2c0.1,0.8,0.5,1.2,0.7,1.5c0.4,0.5,0.7,0.5,1.2,0c0.3-0.1,0.9-0.8,1.7-1.6
		c0.6-0.6,1.2-1.5,1.5-1.8c0.7,0.3,2,0.9,3.1,1.4c-4.6-5.7-9-12.6-10.9-17.2c-0.8-2,0.8-2.6,1.5-0.7c2,5.2,8,14.4,12.4,19.2
		c5,5.5,14.2,13.6,20.3,16.8c-0.8-1.7-2-4.2-3.4-7c-7.3-4.2-14.6-11.7-18.1-18.3l1.5,0.1c3.2,5.7,10.9,13.3,15.4,15.4
		c-4.2-8.8-9.5-19.9-13.7-24.6c-5.2-5.9-10.9-10.6-13.7-12.9c-2.7-2.4-3.8-5.4-7.6-5.4c-3.2,0-4.9,2.3-5.5,4.6
		c-0.1,0.5-0.3,0.8-0.5,1.2l-1.6,1.8l3.2-0.4l-1.9,2.6c0,0,5.1-1.1,6.9,1.3c1.9,2.6,0.7,5.5,3.9,11.3c1.4,2.5,4.7,7,5.9,8l-2.3,4.6
		L146.3,65.9L146.3,65.9z M96.2,66.7l-0.8-0.5c0.4-0.4,1.3-0.9,2.1-1.3c0.4-0.1,0.8-0.3,1.3-0.3c0.8,0,1.6,0.4,2.3,0.8
		c1.1,0.6,2.4,1.3,3.5,1.3c0.4,0,0.7-0.1,1.1-0.1c1.1,0,2,0.4,2.5,0.4c0.4,0,0.5-0.3,0.8-0.6c0.5-0.8,1.3-1.4,2.3-1.7
		c0.9-0.4,2.3-0.6,3.5-0.6c1.1,0,2,0.1,2.6,0.3c0,0-0.8,0.9-0.9,1.2c-1.1,0-3.1-0.1-4.4,0.4c-0.8,0.4-1.1,0.8-1.1,1.5
		c0,0.9,1.1,1.4,2.3,1.7c0.8,0.1,1.6,0.3,2.1,0.3c0.8,0,2.4-0.4,4-0.7c1.9-0.4,3.6-0.8,4.2-1.1l0.7,1.2c-2,0.7-4.2,1.4-6.2,1.7
		c-1.1,0.3-2.1,0.4-3.1,0.4c-1.6,0-3.4-0.7-4.7-1.4c-1.2-0.5-2.3-1.1-3.2-1.1c-1,0-2,0.4-3,0.9c-0.5,0.3-2,1.3-3.2,1.8
		c-1.1,0.4-1.8,0.6-2.8,0.6c-0.8,0-1.5-0.1-1.9-0.5l1.6-0.9c0.3,0.1,0.6,0.3,0.8,0.3c0.3,0,0.5-0.1,1.1-0.4c0.4-0.1,0.8-0.4,1.2-0.6
		c0.6-0.4,0.8-0.7,1.1-0.8c0.5-0.4,0.7-0.8,0.1-1.4c-0.4-0.3-0.6-0.5-0.9-0.8c-0.6-0.4-0.9-0.6-2-0.6C97.5,66.2,96.7,66.4,96.2,66.7
		L96.2,66.7z"/>
	<path fill-rule="evenodd" clip-rule="evenodd" fill="#164C8E" d="M118.1,67.3c0,0-0.9-0.3-1.2-0.3c0.6-0.8,1.5-1.6,2-2
		c1.3-0.8,2.6-1.4,4.7-1.5c0.5-0.1,1.6-0.1,2.3-0.1c0.6,0.1,1.6,0.1,2.4,0.3c0.6,0.1,1.2,0.3,1.7,0.4c0.3,0.1,1.3,0.1,1.6,0
		c1.5-0.3,3.2-0.8,4-1.3l0.4,1.4c-1.9,1.1-4,2-6.1,2c-0.9,0-2-0.1-3.1-0.1c-1.7-0.1-3.2-0.4-3.8-0.4
		C121.6,65.5,119.5,66.2,118.1,67.3L118.1,67.3z M116.7,75l-1.8-0.8c2.5-1.2,6.3-2.5,7.9-2.8c1.6-0.3,3.4-0.4,4.4-0.8
		c0.5,1.2,1.5,2.4,2.8,2.4c0.5,0,1.3-0.4,2.1-0.7c0.9-0.4,1.8-0.8,2.3-1.1c0.5-0.3,2.2-0.9,3.6-1.6c0.5-0.3,2-0.9,2-0.9l0.9,0.5
		c-0.3,1.2-0.8,2.8-1.3,3.9c-0.1,0.4-0.4,0.8-0.6,1.1c-0.4,0.4-1.1,1.1-2,1.7c-0.9,0.7-2.1,1.4-3.4,2c-0.9,0.5-1.9,1.1-2.9,1.6
		l-0.4-0.9c1.5-0.9,3-1.9,4.4-2.9c0.6-0.4,1.1-0.8,1.6-1.4c0.4-0.3,0.5-0.5,0.7-0.8c0.4-0.5,1.1-1.7,1.3-2.3
		c-0.6,0.3-2.7,1.3-3.6,1.7c-1.1,0.6-2.8,1.5-3.9,2c-0.7,0.4-1.4,0.5-1.9,0.5c-1.1,0-1.6-0.8-1.9-1.3c-0.7-1.2-1.4-1.3-3.4-1.3
		C121.6,72.7,118.5,73.7,116.7,75L116.7,75z M127.3,69.3c0,0-0.3-1.1-0.4-1.5c0,0,0.4-0.1,0.8-0.1c0.6,0,2.3,0.1,3,0.1
		c2.6,0,3.5-0.8,4.3-1.5c0.7-0.6,1.4-1.1,3.1-1.1c1.6,0,3.4,0.6,3.9,0.8l-0.1,1.5c-0.8-0.4-1.8-0.7-2.8-0.7c-0.6,0-1.2,0-1.6,0.3
		c-0.4,0.3-0.8,0.6-1.2,0.9c-0.4,0.4-1.1,0.7-1.9,1.1c-0.8,0.4-1.8,0.5-3.4,0.5C129.1,69.7,127.9,69.4,127.3,69.3L127.3,69.3z"/>
	<path fill-rule="evenodd" clip-rule="evenodd" fill="#164C8E" d="M110.8,80.1l1.2-0.5c1.1,0.4,2.7,0.9,3.8,0.9
		c0.7,0,1.2-0.3,1.6-0.4c0.4-0.1,4.4-2.1,6.4-2.8c0.6-0.3,1.3-0.4,1.6-0.4c0.5,0,0.5,0.1,0.7,0.4c0.4,0.6,3.4,4.8,3.6,5.1
		c2.5-0.8,5.1-1.9,6.6-3.2c1.6-1.5,2.8-3.2,4.2-4.6c0.4-0.5,1.1-0.9,1.3-1.1c1.3-0.7,5.4-0.8,7-0.7l-0.9,1.4c-3,0-4.7,0.4-5.4,0.8
		c-0.3,0.3-0.8,0.8-1.2,1.4c-1.1,1.3-2.1,3.1-2.6,3.5c0.8,0.6,1.8,1.1,3.4,1.1c2.5,0,4.3-1.6,5.2-2.4l0.8,0.4
		c-0.6,0.8-1.3,1.6-2.3,2.3c-1.1,0.7-2.3,1.2-3,1.4c-1.5-0.3-4.7-0.9-5.4-1.1c-2.8,1.1-7.3,2.9-8.8,3.4c-0.4,0.1-0.7,0.1-1.1,0.1
		c-1.2,0.1-2.8,0.1-4.4,0c-1.1,0-2,0-2.6-0.1l-1.4-1.4c1.2,0.3,1.6,0.3,2.8,0.3c2.6,0,4.3-0.4,4.8-0.5c0.5-0.1,0.6-0.4,0.4-0.8
		c-0.3-0.6-0.6-1.3-1.2-2c-0.4-0.4-1.1-0.9-1.3-1.1c-0.4-0.3-0.7-0.4-1.7,0c-0.8,0.3-3.7,1.8-4.9,2.5c-0.6,0.3-1.1,0.4-2.1,0.1
		C114.6,81.7,111.8,80.8,110.8,80.1L110.8,80.1z M118.6,48.7c0.5,0,1.1-0.5,1.1-1.1c0-0.6-0.5-1.1-1.1-1.1c-0.6,0-1.1,0.4-1.1,1.1
		C117.6,48.2,118,48.7,118.6,48.7z M157.6,108.2c0-0.8-0.7-1.5-1.6-1.5H154c-0.8,0-1.6,0.7-1.6,1.5l0.1,23.1c0,0.8,0.6,1.5,1.5,1.5
		h2.1c0.8,0,1.6-0.7,1.6-1.5V108.2L157.6,108.2z M160.4,108.9v1.1c0,0.5,0.4,0.8,0.8,0.8h15.2c0.7,0,1.3-0.6,1.3-1.3v-1.8
		c0-0.7-0.6-1.4-1.3-1.3c0,0-14.6,1.5-15.2,1.6C160.7,107.9,160.4,108.4,160.4,108.9L160.4,108.9z M148,132.8c-3.8,0-6.1-2.8-6.1-6
		v-9.2h-1.1c-0.5,0-1.1-0.5-1.1-1.1v-1.6c0-0.6,0.5-1.1,1.1-1.1h1.1v-5.7c0-0.8,0.6-1.5,1.5-1.5h2.1c0.8,0,1.4,0.7,1.4,1.5v5.7h3.4
		c0.6,0,1.1,0.4,1.1,1.1v1.6c0,0.5-0.4,1.1-1.1,1.1h-3.4v8.5c0,1.6,1.1,2.8,2.8,2.8h0.4c0.6,0,1.1,0.4,1.1,1.1v1.6
		c0,0.6-0.5,1.1-1.1,1.1L148,132.8L148,132.8L148,132.8z M122.2,123c0-4.9-2.9-9.8-9.5-9.8c-6.1,0-9.5,4.8-9.5,9.8
		c0,5.4,3.6,10.1,9.5,10.1c4,0,8-2,8.8-5.6c0.1-0.4-0.3-1.1-0.8-1.1h-2.9c-0.5,0-0.9,0.3-1.2,0.7c-0.8,1.2-2,1.8-3.8,1.8
		c-2.6,0-4.3-2-4.4-4.2h12.3C121.7,124.7,122.2,124,122.2,123L122.2,123z M108.4,120.9c0.1-2.1,2-3.8,4.3-3.8c2.3,0,4.2,1.6,4.4,3.8
		H108.4z M178.2,123c0-4.9-2.9-9.8-9.5-9.8c-6.1,0-9.5,4.8-9.5,9.8c0,5.4,3.6,10.1,9.5,10.1c4,0,8-2,8.8-5.6
		c0.1-0.4-0.3-1.1-0.8-1.1h-2.9c-0.5,0-1,0.3-1.2,0.7c-0.8,1.2-2,1.8-3.9,1.8c-2.5,0-4.2-2-4.4-4.2h12.3
		C177.7,124.7,178.2,124,178.2,123L178.2,123z M164.3,120.9c0.1-2.1,2-3.8,4.3-3.8c2.3,0,4.2,1.6,4.4,3.8H164.3z"/>
	<path fill-rule="evenodd" clip-rule="evenodd" fill="#164C8E" d="M137.8,107H98.1c-0.9,0-1.6,0.8-1.6,1.6l0.1,15.7
		c0,0-8.5-15.5-9-16.3c-0.4-0.8-1.4-1.5-2.6-1.5h-3.2c-0.9,0-1.6,0.8-1.6,1.6v22.9c0,0.9,0.7,1.6,1.6,1.6h2c0.9,0,1.6-0.7,1.6-1.6
		l-0.1-16c0,0,8.6,15.6,9,16.2c0.4,0.8,1.3,1.5,2.5,1.5h3c0.9,0,1.6-0.7,1.6-1.6v-20.3h36.4c0.6,0,1.1-0.5,1.1-1.1v-1.6
		C138.9,107.5,138.4,107,137.8,107L137.8,107z"/>
	<path fill-rule="evenodd" clip-rule="evenodd" fill="#164C8E" d="M131.4,117c1.7,0,3,0.6,3.5,1.7c0.1,0.5,0.6,0.6,1.2,0.6h2.4
		c0.4,0,0.8-0.4,0.8-0.8c0-2.8-3.4-5.2-8-5.2c-4.8,0-8,2.3-8,5.9c0,2.8,2.3,4.4,4.9,5.2c1.3,0.3,3.5,0.8,4.4,1.1
		c1.1,0.3,2,0.6,2,1.6c0,1.6-1.6,2-3.4,2c-1.6,0-3.2-0.7-3.7-1.9c-0.3-0.7-0.8-0.8-1.5-0.8h-2.5c-0.4,0-0.9,0.4-0.9,0.9v0.4
		c0,2.7,3.6,5.4,8.6,5.4c3.5,0,8.3-1.5,8.3-6.1c0-2.8-1.8-4.7-4.8-5.4c-1.1-0.3-3.9-1.1-4.4-1.1c-1.1-0.4-2.1-0.7-2.1-1.6
		C128.4,117.4,129.7,117,131.4,117L131.4,117z"/>
</g>
</svg>
