<?xml version="1.0" encoding="utf-8"?>
<!-- Generator: Adobe Illustrator 27.9.0, SVG Export Plug-In . SVG Version: 6.00 Build 0)  -->
<svg version="1.1" id="Layer_1" xmlns="http://www.w3.org/2000/svg" xmlns:xlink="http://www.w3.org/1999/xlink" x="0px" y="0px"
	 width="256px" height="160px" viewBox="0 0 256 160" enable-background="new 0 0 256 160" xml:space="preserve">
<g>
	<path d="M133.7,43.9c-0.5,0.1-1,1.8-1.8,2.8c-0.6,0.6-1.5,0.6-2,1.4c-0.2,0.3-0.1,0.8-0.3,1.4c-0.4,1-1.7,1.1-1.7,2.1
		c0,1.2,1.1,1.4,2.1,2.2c0.7,0.6,0.8,1.1,1.7,1.4c0.8,0.2,1.9-0.6,2.9-0.3c0.9,0.2,1.7,0.5,1.8,1.4c0.2,0.8,0,2.1-1,1.9
		c-0.3,0-1.8-0.6-3.7-0.3c-2.2,0.2-4.8,1-5.1,3.5c-0.2,1.4,1.6,3,3.3,2.7c1.2-0.2,0.6-1.6,1.3-2.2c0.8-0.9,5.5,2.9,9.8,2.9
		c1.8,0,3.2-0.5,4.5-1.9c0.2-0.1,0.3-0.3,0.5-0.3c0.2,0,0.5,0.2,0.6,0.2c3.5,2.8,6.1,8.4,19,8.5c1.8,0,3.9,0.9,5.6,2.4
		c1.5,1.4,2.4,3.6,3.3,5.7c1.3,3.3,3.6,6.5,7.1,10c0.2,0.2,3.1,2.5,3.3,2.6c0,0,0.2,0.6,0.2,0.8c-0.1,2.1-0.4,8.3,4.2,8.6
		c1.1,0.1,0.8-0.7,0.8-1.3c0-1.1-0.2-2.1,0.4-3.3c0.8-1.5-1.7-2.2-1.6-5.5c0.1-2.5-2-2.1-3-3.9c-0.6-1.1-1.1-1.7-1.1-2.9
		c0.2-7.5-1.6-12.3-2.5-13.5c-0.7-0.9-1.3-1.3-0.6-1.7c3.9-2.5,4.8-4.9,4.8-4.9c2.1-4.8,3.9-9.2,6.4-11.2c0.5-0.4,1.8-1.4,2.6-1.7
		c2.4-1.1,3.7-1.8,4.3-2.5c1.1-1,2-3.3,0.9-4.6c-1.3-1.7-3.6-0.3-4.5,0.2c-7.1,4.2-8.1,11.6-10.6,15.9c-2,3.4-5.2,5.9-8,6.1
		c-2.1,0.2-4.4-0.2-6.8-1.3c-5.6-2.5-8.7-5.6-9.4-6.2c-1.5-1.2-13.1-12.5-22.6-13c0,0-1.2-2.3-1.4-2.4c-0.7-0.1-1.4,1.4-1.9,1.6
		C134.9,45.5,134.1,43.8,133.7,43.9 M92.2,111.9c-0.9,0-1.7-0.7-1.7-1.7V80.9h-9.7v32.5c0,1.6,1.3,2.9,2.9,2.9h16.9
		c1.6,0,2.9-1.3,2.9-2.9V81h-9.7v29.4C93.8,111.2,93.1,111.9,92.2,111.9 M124.6,81H110c-1.7,0-3.2,1.4-3.2,3.2v32.1h9.7V86.8
		c0-0.9,0.7-1.6,1.7-1.6c0.9,0,1.7,0.7,1.7,1.6v29.5h9.7V86.8c0-0.9,0.7-1.6,1.7-1.6c0.9,0,1.7,0.7,1.7,1.6v29.5h9.7V84.1
		c0-1.7-1.4-3.2-3.2-3.2C139.4,81,124.6,81,124.6,81z M67.9,86.8c0-1-0.8-1.7-1.7-1.7h-1.7V103h1.7c0.9,0,1.7-0.7,1.7-1.7V86.8z
		 M74.4,107.3h-9.8v8.9h-9.7V81h19.5c1.7,0,3.1,1.4,3.1,3.2v20C77.6,105.9,76.2,107.3,74.4,107.3 M175.6,108.4
		c-1.9,0-3.6,1.7-3.6,3.7c0,2.1,1.7,3.7,3.7,3.7s3.6-1.7,3.6-3.7C179.2,110,177.7,108.4,175.6,108.4L175.6,108.4z M180,112
		c0,2.4-1.9,4.4-4.3,4.4s-4.4-1.9-4.4-4.4c0-2.4,1.9-4.4,4.3-4.4C178.1,107.7,180,109.6,180,112"/>
	<path d="M175.2,111.8c0.6,0,1-0.2,1-0.7c0-0.4-0.3-0.6-1-0.6H175v1.4H175.2z M177.7,114.6h-1.2l-1.5-2v2h-1v-5h1
		c1.4,0,2.1,0.5,2.1,1.5c0,0.6-0.4,1.2-1,1.4h-0.1L177.7,114.6z M158.6,103V86.8c0-0.9-0.7-1.6-1.7-1.6c-0.9,0-1.7,0.7-1.7,1.6V103
		H158.6z M158.6,116.2v-8.8h-3.3v8.8h-9.7V84.1c0-1.7,1.4-3.2,3.2-3.2h16.4c1.7,0,3.2,1.4,3.2,3.2v32.1H158.6z"/>
</g>
</svg>
