<?xml version="1.0" encoding="utf-8"?>
<!-- Generator: Adobe Illustrator 27.9.0, SVG Export Plug-In . SVG Version: 6.00 Build 0)  -->
<svg version="1.1" id="Layer_1" xmlns="http://www.w3.org/2000/svg" xmlns:xlink="http://www.w3.org/1999/xlink" x="0px" y="0px"
	 width="256px" height="160px" viewBox="0 0 256 160" enable-background="new 0 0 256 160" xml:space="preserve">
<g>
	<path fill="#0E7DC2" d="M124.8,113c-25.3,2.4-51.6-1.3-55.4-21.1c-1.8-9.7,2.7-20,8.5-26.5v-3.4C67.4,71.4,61.6,83.1,65,97
		c4.3,17.8,26.9,27.9,61.4,24.6c13.7-1.3,31.5-5.7,43.9-12.6v-9.7C159.1,106,140.3,111.6,124.8,113L124.8,113z M191.4,61.8
		c-6-29.3-62.9-31.2-99.5-8.8v2.4c36.6-18.8,88.5-18.7,93.3,8.3c1.6,9-3.4,18.2-12.4,23.5v7C183.6,90.3,194.7,77.5,191.4,61.8
		L191.4,61.8z"/>
	<path fill="#0E7DC2" d="M168.3,57.5h-6.7V87c0,3.5,1.7,6.4,6.7,7V57.5z M89.2,68.3h-6.7v19.3c0,3.5,1.7,6.5,6.7,7V68.3L89.2,68.3z
		 M82.7,58.4h6.6v6.3h-6.6V58.4z M129,94.3c-5.4,0-7.6-3.7-7.6-7.4V61.2h6.6v7.1h5v5.4h-5v12.8c0,1.5,0.7,2.4,2.3,2.4h2.7v5.5
		L129,94.3 M141.1,83.3c0,3.3,2,5.8,5.8,5.8c2.9,0,4.4-0.8,6-2.4l4.1,3.9c-2.6,2.6-5.4,4.2-10.1,4.2c-6.3,0-12.3-3.4-12.3-13.4
		c0-8.6,5.3-13.4,12.1-13.4c7,0,11,5.7,11,13.1v2.4L141.1,83.3 M146.5,73.3c-2.2,0-4,1.2-4.7,2.8c-0.5,0.9-0.6,1.7-0.6,2.8h10.1
		C151.1,76,149.9,73.3,146.5,73.3z M107.1,73.7c1.9,0,2.8,0.9,2.8,2.5v18.2h6.6V76.1c0-3.7-2-7.8-7.8-7.8H95.1v26h6.6V73.7H107.1
		L107.1,73.7z M175.4,62.7c-1.5,0-2.7-1.2-2.7-2.7s1.2-2.7,2.7-2.7s2.7,1.2,2.7,2.7C178.1,61.6,176.9,62.7,175.4,62.7L175.4,62.7z
		 M175.4,57.9c-1.2,0-2.1,0.9-2.1,2.2c0,1.2,0.9,2.2,2.1,2.2s2.2-0.9,2.2-2.2C177.6,58.9,176.6,57.9,175.4,57.9z M176.6,61.7H176
		c-0.1,0-0.1,0-0.1-0.1l-0.6-1.1l-0.1-0.1h-0.3v1.1c0,0.1-0.1,0.2-0.1,0.2h-0.5c-0.1,0-0.1-0.1-0.1-0.2v-2.8c0-0.2,0.1-0.2,0.2-0.2
		c0.2,0,0.6-0.1,0.8-0.1c0.8,0,1.3,0.2,1.3,1v0.1c0,0.5-0.2,0.7-0.6,0.8L176.6,61.7L176.6,61.7C176.7,61.7,176.7,61.7,176.6,61.7
		L176.6,61.7z M175.9,59.5c0-0.3-0.2-0.5-0.6-0.5h-0.5V60c0.1,0,0.4,0,0.5,0C175.7,60,175.9,59.9,175.9,59.5L175.9,59.5z"/>
</g>
</svg>
