<?xml version="1.0" encoding="utf-8"?>
<!-- Generator: Adobe Illustrator 27.9.0, SVG Export Plug-In . SVG Version: 6.00 Build 0)  -->
<svg version="1.1" id="Layer_1" xmlns="http://www.w3.org/2000/svg" xmlns:xlink="http://www.w3.org/1999/xlink" x="0px" y="0px"
	 width="256px" height="160px" viewBox="0 0 256 160" enable-background="new 0 0 256 160" xml:space="preserve">
<g>
	<path fill="#FFBB36" d="M160.5,35.9c0.3-0.7-0.3-1.4-0.3-1.4s-4.6-7.8-20.7-9.5c-8.6-0.9-20.4,0.8-28.7,5.3
		c-14.9,8.1-17.2,21.3-17.2,21.3c-0.1,0.3-0.2,1.3,0.1,1.7c0.3,0.4,0.8,0.4,1.5,0.2c5.3-1.8,21-7,30.9-9.6c14.1-3.7,25.7-6,33.2-7.3
		C159.8,36.6,160.3,36.4,160.5,35.9"/>
	<path fill="#0066B3" d="M176.6,98.4c-8.4,19-24.7,32.2-45.9,32.5c-15.5,0.2-29.1-5.1-39-14.3l-6,2.6l0-9.2
		c-6.5-8.8-10.3-19.8-10.3-32.4c0-32.2,24.7-57.7,59.1-57.7c5.6,0,10.7,0.9,14.5,1.7c-5.9-1.9-11.8-2.9-18.3-2.9
		c-37,0-61.9,30-61.9,60.9c0,33.7,26.4,61.9,61.1,61.9c33.1,0,51-23.4,56.7-37.4L176.6,98.4z"/>
	<path fill="#EC1D23" d="M168.1,91.7c4.9-0.6,8.2-2.5,10.1-4.3c1.7-1.7,2.1-3.9,2.1-5.6c0.1-2.5,0-10.3,0-10.3l-12.9,2.8
		c0,0,0,1,0,3c0,2,1,3.1,3.1,2.7c0.7-0.1,1.7-0.4,1.7-0.4l0,2.5c0-0.1,0.2,1.4-3.1,2c-4.2,0.7-6.2-1.9-6.2-6.6
		c0.1-4.9,2.9-7.8,6.3-8.6c3.8-0.9,6,0,7.2,0.2c4.3,0.6,5.5-5.8,1.6-7.2c-2.9-1.2-6.6-1.4-10.1-0.7c-4.7,0.9-14,4.9-14.1,17.8
		C153.7,89.2,161.3,92.5,168.1,91.7 M126.2,102.7c0,0,3.9-1.4,4.3-1.5c3.2-1.1,4.3-3,4.3-6.2c0-3.5,0-10.5,0-10.5l9.2,10.6
		c1.5,1.5,3.4,1.7,5.1,1.2c1.8-0.5,3.2-2.1,3.3-4.4c0-7.6,0-26.3,0-26.3s-2.4,0.5-4.3,1.1c-2.3,0.6-4,2.1-4,5.9c0,1.4,0,9.1,0,9.1
		s-5.2-6.5-8.5-9.9c-1.8-1.8-4.8-0.7-4.8-0.7l-4.4,1.3L126.2,102.7z M123.5,73.1c0,0-2.8,0.8-5,1.6c-2.9,1.1-4.6,2.7-4.6,7.2
		c0,4.1,0,25.2,0,25.2s2.6-0.9,4.9-1.8c3.4-1.3,4.7-3,4.7-6.6C123.4,95.6,123.5,73.1,123.5,73.1 M109.7,79.1
		c-2.5-1.2-4.7,0.1-5.6,1.6l-7.8,13.3l0-10.7L87.1,87l0,30.2l6.5-2.7c0,0,1.3-0.4,2-1.6c0.7-1.1,0.7-3,0.7-3l0-9.6l7.2,7.7
		c1.6,1.7,4.5,2.5,7.1,0.4c2.3-1.9,2-5.1,0.7-6.5l-6.6-6.6c0,0,5.8-9.1,6.8-10.7C112.7,82.6,112,80.1,109.7,79.1"/>
	<path fill="#FFBB36" d="M106.1,114.6c-0.3,0.8,0.4,1.6,0.4,1.6c3.3,4.2,18.2,9.5,34.3,5.6c24.6-6,29.8-23.4,30.4-25.8
		c0.1-0.5,0.2-1.3-0.2-1.8c-0.4-0.4-0.9-0.4-1.7-0.2c-17.1,4-45.6,12.7-62,19.7C106.7,114,106.4,114.1,106.1,114.6"/>
	<g>
		<path fill="#EC1D23" d="M91.5,75c0-1.7-1.3-2.6-3.6-1.5l0,5.4c0,0,0.7-0.3,1.3-0.6C90.5,77.7,91.6,76.6,91.5,75 M87.9,70.1
			c0.3-0.1,0.7-0.3,1-0.4c1.2-0.6,2.1-1.7,2.1-3.1c0-1.6-1.3-2-3.1-1.1L87.9,70.1z M97.4,74.2c0.1,4.2-3,6.5-6.9,8.1l-8.1,3.5l0-22
			c0,0,5.1-2.1,6.8-2.7c4.7-1.7,7.5,0.4,7.5,3.5c0,2.1-0.9,3.9-2.9,5.5C95.7,70.4,97.4,72,97.4,74.2L97.4,74.2z M112.8,55.6
			c0-1.9-1.3-2.3-2.8-1.9c-1.2,0.4-2.7,0.9-2.7,0.9l0,13.7c0,1.4-0.2,3.1-1.9,3.5c-1.3,0.3-1.9-0.5-1.9-1.9l0-11.2
			c0-1.9-1.3-2.4-2.8-1.9c-1.7,0.6-2.8,1-2.8,1s0,9.7,0,13.6c0,4.5,3.1,6.8,7.9,5.4c4.2-1.2,7-3.6,7.1-9.7L112.8,55.6z M158,61.3
			c1.2-0.3,2-1.1,2-2.6c0-1.3,0-2.4,0-2.4l-6.6,1.4l0-3.9c0,0,3.2-0.7,4.1-0.9c1.1-0.2,1.7-0.9,1.7-2.2c0-1.2,0-2.2,0-2.2l-5.8,1.2
			l0-3.1c0,0,3-0.6,4.7-1c1.3-0.3,1.7-1.1,1.7-2.3c0-0.8,0-2.3,0-2.3c-2.9,0.5-8.5,1.6-11.9,2.4l0,20.1
			C147.8,63.6,154.4,62.1,158,61.3 M119.9,60.5c0,0,3.3-1.7,3.2-4.4c0-2.3-2.1-1.8-3.2-1.4L119.9,60.5z M119.9,63.6c0,0,0,3.8,0,5.4
			c0,1.5-1,2.5-2.3,3c-1.1,0.4-3.3,1.1-3.3,1.1l0-20.7c0,0,4.6-1.6,7.3-2.2c4.2-1,7.2,0.9,7.2,4.3c0,3.2-1.8,5.2-3.5,6.6l3.6,3.4
			c1.1,1.1,1.2,3-0.1,4.1c-0.7,0.7-2.7,1.4-4.2-0.2L119.9,63.6z M166.6,49.3c0,0,3.2-1.2,3.2-3.8c0-2.2-2.2-1.8-3.2-1.6L166.6,49.3
			 M161.2,60.7l0-19.8c0,0,5.8-1,7.3-1.2c4.1-0.5,6.9,1.8,6.9,5c0,2.9-1.8,4.6-3.4,5.6c0,0,2.8,3.2,3.6,4c1,1.1,1,3.1-0.5,4
			c-1.5,0.9-2.9,0.4-3.8-0.5l-4.7-5.5c0,0,0,3.4,0,4.8c0,1.5-0.9,2.5-2.4,2.8L161.2,60.7z"/>
		<path fill="#EC1D23" d="M146.5,52.3l-8.2,1.9c0,0,0,0.9,0,2.3c0,1.1,0.8,1.8,1.8,1.5c0.7-0.1,1.2-0.3,1.2-0.3l0,2.3
			c0,0.9-1.3,1.5-2.8,1.5c-2-0.1-3.1-1.6-3.1-4.5c0.1-3.8,1.9-6.1,4.3-6.7c1.2-0.3,2.3-0.2,3.2,0c2.1,0.3,3.3-0.7,3.4-2.4
			c0-1.9-1.6-3-5.2-2.9c-7.7,0.3-11.7,5.8-11.7,12.4c0,6.8,4.4,9.8,9.8,8.8c3.1-0.6,4.6-1.6,5.6-2.5c1.1-0.9,1.5-2.3,1.5-3.5V52.3z"
			/>
	</g>
	<path fill="#FFFFFF" d="M114.2,30.1c-9.1,4-15.2,13.5-15.5,17.5c-0.1,1.6,2,1.8,2.2,0.1C102.8,40.5,108.6,33.5,114.2,30.1
		 M144.2,37c4.9-1.2,7.6-1.4,7.6-3.6c0.1-3.7-10.3-7.9-19.9-7.1c9.7,0.6,15.6,4.4,15.6,7C147.5,34.9,146.1,36.4,144.2,37
		 M147.2,117.7c7.3-2.9,14.4-8.4,18.3-16.6c1.1-2.4-2.1-3.6-3-0.8C160.2,106.1,155.5,113,147.2,117.7"/>
</g>
</svg>
