<?xml version="1.0" encoding="utf-8"?>
<!-- Generator: Adobe Illustrator 27.9.0, SVG Export Plug-In . SVG Version: 6.00 Build 0)  -->
<svg version="1.1" id="Layer_1" xmlns="http://www.w3.org/2000/svg" xmlns:xlink="http://www.w3.org/1999/xlink" x="0px" y="0px"
	 width="256px" height="160px" viewBox="0 0 256 160" enable-background="new 0 0 256 160" xml:space="preserve">
<g>
	<path fill="#CC2229" d="M58,87.3c2.7,4.4,7.5,7.3,13,7.3c8,0,12.4-6.9,12.4-6.9l0.6,1.8c-3.7,4.8-10.4,7.7-17.8,7.7
		c-8.5,0-15.9-4.1-19.3-10c-1.3-2.2-2-4.7-2-7.3c0-9.5,9.5-17.3,21.3-17.3c8.3,0,15,3.6,18.5,8.7l-13.9,8.4l8-12.2
		c-2.3-1.4-5.1-2.8-8-2.8c-8.2,0-14.9,6.8-14.9,15C55.9,82.5,56.7,85.1,58,87.3z M95.4,87.3c0,0.3-0.1,0.6-0.1,0.8
		c0,3.1,2.5,5.6,5.6,5.6c3.1,0,5.6-2.5,5.6-5.6c0-0.3,0-0.6-0.1-0.8c-0.4-2.7-2.7-4.8-5.6-4.8C98.1,82.5,95.8,84.6,95.4,87.3
		L95.4,87.3z M116.2,87.3l2.8,9.4h-9.8l-1.9-6.4c-1.3,3.7-5.6,6.4-10.8,6.4c-6.2,0-11.2-3.9-11.2-8.7c0-0.2,0-0.4,0-0.7
		c0.4-4.5,5.3-8,11.2-8c3.3,0,6.3,1.1,8.4,3l-2.7-8.9H91c0,0,1.9-1.1,10.2-4.1c8.3-3,10.9,4.1,10.9,4.1L116.2,87.3L116.2,87.3z
		 M147.5,87.3v9.4h-10.1V76c0-1.5-1.2-2.8-2.8-2.8l0,0c-1.1,0-2.2,0.7-2.6,1.8v21.6h-9.9V73.3h-5.8c0,0,8-4.9,10.8-4.9
		c2.6,0,4.6,2,4.8,4.6c3.9-2.1,7.7-4.6,10.4-4.6c2.7,0,5,2.2,5,4.9L147.5,87.3L147.5,87.3z M163,87.3l1.4,4.6c0,2,1.7,3.6,3.7,3.6
		c2,0,3.7-1.7,3.7-3.7c0-0.1,0-0.3,0-0.4l-1.2-4.1L166.4,73c-0.2-1.9-1.8-3.3-3.7-3.3c-1.9,0-3.7,1.8-3.9,3.6L163,87.3L163,87.3z
		 M179,87.3c-1.9,5.8-7.4,10-13.8,10c-6.4,0-11.9-4.2-13.8-10c-0.5-1.5-0.7-3-0.7-4.5c0-8,6.5-14.5,14.5-14.5
		c8,0,14.5,6.5,14.5,14.5C179.7,84.3,179.5,85.9,179,87.3z M195.7,87.3v9.4h-9.9V73.3h-5.5c0,0,7.8-4.9,10.6-4.9
		c2.6,0,4.6,2,4.8,4.6c3.9-2.1,7.7-4.6,10.4-4.6c2.7,0,5,2.2,5,4.9v23.4H201V76c0-1.5-1.2-2.8-2.8-2.8l0,0c-1.1,0-2.2,0.7-2.6,1.8
		V87.3L195.7,87.3z"/>
</g>
</svg>
