<?xml version="1.0" encoding="utf-8"?>
<!-- Generator: Adobe Illustrator 27.9.0, SVG Export Plug-In . SVG Version: 6.00 Build 0)  -->
<svg version="1.1" id="Layer_1" xmlns="http://www.w3.org/2000/svg" xmlns:xlink="http://www.w3.org/1999/xlink" x="0px" y="0px"
	 width="256px" height="160px" viewBox="0 0 256 160" enable-background="new 0 0 256 160" xml:space="preserve">
<g>
	<path fill-rule="evenodd" clip-rule="evenodd" fill="#CC2229" d="M98.9,110.3l-2.2-17.4c-5.7-4.1-10.1-7.4-15.4-11.2
		c-2.5-18.4,2.1-28.3,8.9-37.8c8.4-10.7,21.9-18.7,38.1-18.7c16.2,0.2,29.7,8.3,37.7,19c7.5,10.1,11.5,22.9,8.6,38l-14.6,10.7
		l-2.2,17.4h-23.1c-1.4,1.1-3.4,2.2-6.5,2.3c-3-0.1-4.9-1.1-6.5-2.3L98.9,110.3L98.9,110.3z"/>
	<path fill-rule="evenodd" clip-rule="evenodd" fill="#F6D330" d="M128.4,86.1c-1.2-16.3-1.6-36.3-2.6-52.4c-1.7-0.4-4.2-0.3-6.2,0
		c-2,0.6-3.5,1.2-5.2,2.2c3.2,15.5,6.8,35.1,10,50.5c-4.3-14.9-10-33.6-14.2-48.4c-2,0.4-4,1.6-5.4,2.7c-1.5,1.2-2.4,2.1-3.8,4.2
		c6.1,13.1,13.5,29.8,19.6,42.8c-7.1-11.8-15.8-27.4-23-39.2c-1.4,1.2-2.4,2.1-3.8,4.5c-1.2,1.9-1.8,4.1-2,6.3
		c7.9,9.6,17.2,21.1,25.1,30.6c-8.2-7.9-18.4-18.2-26.5-26.1c-0.8,1.6-1.3,3-1.6,5.6c-0.3,2.6,0.2,5.7,0.8,7.5l15.9,11.8l1.7,13.1
		l17.5,0.1c1.3,1.5,1.7,2.2,3.8,2.4c2-0.1,3.1-1.4,3.6-2.4h17.5l1.8-13.2L167,77c0.6-1.9,1-4.9,0.8-7.5c-0.3-2.8-0.8-4.2-1.4-5.7
		c-8.2,7.9-18.4,18.1-26.5,26.1c7.9-9.5,17.2-21,25.2-30.7c-0.4-2.2-0.9-4.4-2.2-6.3c-1.5-2.4-2.3-3.3-3.7-4.5
		c-7.2,11.7-16,27.4-23.1,39.2c6.3-13,13.5-29.7,19.7-42.7c-1.4-2.1-2.3-3.1-3.7-4.2c-1.6-1.2-3.6-2.4-5.5-2.8
		c-4.4,14.8-9.9,33.7-14.2,48.4c3-15.3,6.8-34.8,9.8-50.3c-1.5-1.1-3-1.6-5-2.2c-2.3-0.4-4.5-0.5-6.3-0.2
		C129.6,49.9,129.6,69.9,128.4,86.1L128.4,86.1z"/>
	<path fill-rule="evenodd" clip-rule="evenodd" fill="#CC2229" d="M80,128.8h8.2c-0.1,1.8,0.8,2.2,1.2,2.5c0.5,0.2,3.9,0.3,5.6,0
		c0.7-0.1,1.3-0.4,1.3-2.4c0-0.9-0.2-1.9-1.2-2.1c-3.6-0.3-7.1,0.1-10.7-0.3c-3.6-0.8-4.1-1.7-4.4-4.6c0.3-3.9,1.6-5.1,5.7-5.2
		c4.2-0.1,8.4-0.1,12.5,0c4.3,0,5.6,1.6,5.6,5.2h-7.5c0-1.8-0.3-2.4-1.2-2.5c-1.8-0.1-3.7-0.1-5.5,0c-0.7,0-1.6,0.3-1.6,1.9
		c0,1.5,0.4,1.9,1.4,2c3.1,0.1,6.2,0.2,9.2,0.4c5.1,0.3,5.2,2.5,5.4,4.9c0.1,3.4-1.1,4.6-2,5.1c-0.8,0.4-4.9,0.8-5.7,0.8h-8.1
		c-1.8,0-4.1-0.2-6.1-0.8C80.2,133.5,80,131,80,128.8L80,128.8z M157,134.9h7.2V117H157V134.9z M168.9,134.9h7.1V117h-7.1V134.9z
		 M152.8,125.5c-0.1-0.6-0.3-1.1-0.5-1.6c-1.2-2-5.4-2-9.5-2.1c-3.1,0-7.7,0.1-9,1.4c-0.5,0.6-0.8,1.4-1,2.3
		c-0.2,1.1-0.2,2.2-0.2,2.7c0,0.9,0.1,4.5,1.8,5.4c1.6,1.1,6.5,1.2,8.3,1.2c2,0,7.5-0.2,8.3-1.1c1.4-0.5,1.8-2.3,2.1-3.7h-7.1
		c0,1.4-1.1,2.2-3.3,2.1c-2,0.1-3.1-0.3-3.1-2.8l13.5,0C153,128.1,153,126.8,152.8,125.5L152.8,125.5z M145.9,126.7h-6.4
		c0-0.5,0.1-0.9,0.2-1.2c0.5-1.1,1.6-1.2,2.9-1.3c1.9,0,2.8,0.5,3.1,1.3C145.9,125.8,146,126.3,145.9,126.7L145.9,126.7z
		 M108.2,134.9h7v-7.6c0.2-1.1,0.4-1.9,3-1.9c2.4,0,3.1,0.6,3.1,1.9v7.6h7v-7.6c0-2.5,0-3.8-1.6-4.6c-1.4-0.9-3.5-0.8-5.4-0.8
		c-2,0-4.3,0.3-6,1.1v-6h-7V134.9L108.2,134.9z"/>
</g>
</svg>
