<?xml version="1.0" encoding="utf-8"?>
<!-- Generator: Adobe Illustrator 27.9.0, SVG Export Plug-In . SVG Version: 6.00 Build 0)  -->
<svg version="1.1" id="Layer_1" xmlns="http://www.w3.org/2000/svg" xmlns:xlink="http://www.w3.org/1999/xlink" x="0px" y="0px"
	 width="256px" height="160px" viewBox="0 0 256 160" enable-background="new 0 0 256 160" xml:space="preserve">
<path fill="#ED1D24" d="M75.6,132.3h104.8V27.7H75.6V132.3z"/>
<path fill="#FFFFFF" d="M152.8,38.6h6.7v33h-6.7V38.6z M110.9,60.7c0,6.2-4.7,11-10.9,11c-6.2,0-11-4.8-11-11v-22h6.5v22
	c0,2.5,2,4.5,4.5,4.5c2.5,0,4.5-2,4.5-4.5v-22h6.4V60.7L110.9,60.7z M141.9,114.7h-22.1v-33h6.7V108h15.4V114.7z M141.9,71.7h-6.7
	l-8.7-18.9v18.9h-6.7v-33h6.7l8.7,18.9V38.6h6.7V71.7L141.9,71.7z M100,81.7c-6.2,0-11,4.9-11,10.9v11.2c0,5.9,4.8,10.9,11,10.9
	c0.7,0,1.5-0.1,2.2-0.2l2.3,6.9h6.4l-3.1-9.9c1.8-2,3.1-4.8,3.1-7.7V92.6C110.9,86.6,106.1,81.7,100,81.7 M104.4,103.8
	c0,2.2-2,4.2-4.5,4.2c-2.5,0-4.5-2-4.5-4.2V92.6c0-2.5,2-4.4,4.4-4.4c0,0,0,0,0,0c2.5,0,4.5,2,4.5,4.4V103.8z M156.1,81.7
	c-6.2,0-10.9,4.9-10.9,10.9v11.2c0,5.9,4.7,10.9,10.9,10.9c6.2,0,10.9-5,10.9-10.9V92.6C167,86.6,162.3,81.7,156.1,81.7
	 M160.6,103.8c0,2.2-2,4.2-4.5,4.2c-2.5,0-4.5-2-4.5-4.2V92.6c0-2.5,2-4.4,4.5-4.4c2.5,0,4.5,2,4.5,4.4V103.8z"/>
</svg>
