<?xml version="1.0" encoding="utf-8"?>
<!-- Generator: Adobe Illustrator 27.9.0, SVG Export Plug-In . SVG Version: 6.00 Build 0)  -->
<svg version="1.1" id="Layer_1" xmlns="http://www.w3.org/2000/svg" xmlns:xlink="http://www.w3.org/1999/xlink" x="0px" y="0px"
	 width="256px" height="160px" viewBox="0 0 256 160" enable-background="new 0 0 256 160" xml:space="preserve">
<path fill="#00539B" d="M205.2,67.5c0-1.9,1.5-3.5,3.4-3.5c0.9,0,1.8,0.4,2.4,1c0.7,0.7,1,1.5,1,2.4c0,0.9-0.3,1.8-1,2.4
	c-0.7,0.7-1.5,1-2.4,1C206.7,71,205.2,69.4,205.2,67.5 M204.9,67.5c0,2.1,1.7,3.8,3.7,3.8c1,0,1.9-0.4,2.6-1.1
	c0.7-0.7,1.1-1.7,1.1-2.7c0-1-0.4-1.9-1.1-2.7s-1.6-1.1-2.6-1.1C206.5,63.7,204.9,65.4,204.9,67.5 M207.2,69.7h0.5V68h1.2
	c0.2,0,0.3,0,0.5,0.1c0.2,0.1,0.3,0.3,0.3,0.5l0.1,0.7v0.3c0,0.1,0,0.1,0.1,0.1h0.7v-0.1c-0.1,0-0.1-0.1-0.2-0.3c0-0.1,0-0.2,0-0.3
	l0-0.5c0-0.3-0.1-0.4-0.1-0.5c-0.1-0.1-0.2-0.2-0.4-0.3c0.2-0.1,0.3-0.2,0.4-0.4c0.1-0.2,0.1-0.3,0.1-0.6c0-0.5-0.2-0.8-0.5-1
	c-0.2-0.1-0.4-0.1-0.7-0.1h-1.8L207.2,69.7z M207.7,67.5v-1.4h1.3c0.2,0,0.3,0,0.4,0.1c0.2,0.1,0.3,0.3,0.3,0.6s-0.1,0.5-0.2,0.6
	c-0.1,0.1-0.3,0.2-0.6,0.2H207.7z M58.9,72.7l-15.3,24h10.4l14.7-22.9L58.9,72.7z M121.8,72.2v-8.9H92.1c-4,0.3-5.8,2.2-7.1,3.6
	c-1.4,1.5-2.2,4.6-2.2,4.6v-8.1H67c-1.2,0-2.3,0.5-3.2,1.7c-0.9,1.2-4.5,7.1-4.5,7.1H121.8z M202.5,72.2v-8.9h-31.7
	c-4,0.3-5.8,2.2-7.1,3.6c-1.4,1.5-2.2,4.6-2.2,4.6v0.7H202.5z M132.2,63.3h-8.9v8.9h8.9V63.3z M161.3,63.3h-8.9v8.9h8.9V63.3z
	 M161.3,75.4l-8.7-0.5v10.3c0,0,0,3-2.9,3h-14.9c0,0-2.5-0.2-2.5-2.9V73.4l-8.8-0.6v15.7c1.4,7.5,8.2,8.1,8.2,8.1s0.7,0,0.8,0.1
	h20.2c0,0,8.7-0.7,8.7-9L161.3,75.4z M73.7,96.7h41.5c7.2-1.4,8-8,8-8c0.3-1.9,0.2-3.5,0.2-3.5c-0.2-1.3-2.7-7.2-8.1-7.7
	c-3.2-0.3-32-2.6-32-2.6c0.6,2.9,1.9,4.4,2.7,5.2c2,1.9,5.2,2.5,5.2,2.5l22.2,1.9c0.7,0,2,0.2,1.9,1.9c0,0.2-0.2,1.7-1.8,1.7h-31
	V74.8l-8.6-0.6C73.7,74.1,73.7,96.7,73.7,96.7L73.7,96.7z M161.4,96.7h31.8c8-0.5,9.1-8,9.1-8c0.3-2,0.1-3.6,0.1-3.6
	c-0.2-1.8-2.8-7.2-8.2-7.7c-3.2-0.3-32.2-2-32.2-2c0.8,3,2,3.9,2.9,4.7c2,1.9,5,2.4,5,2.4c0.8,0.1,22.4,1.9,22.4,1.9
	c0.7,0,2.1,0.1,2.1,1.8c0,0.5-0.3,1-0.6,1.3c0,0-0.8,0.4-1.5,0.4h-30.8L161.4,96.7z"/>
</svg>
